<svg width="17" height="20" viewBox="0 0 17 20" fill="none" xmlns="http://www.w3.org/2000/svg">
<path d="M1.88889 19.9305H15.1111C16.1528 19.9305 17 19.0794 17 18.0327V7.59505C17 7.34339 16.9005 7.10204 16.7234 6.92409C16.5463 6.74614 16.306 6.64617 16.0556 6.64617H13.2222V5.69728C13.2222 3.08122 11.1038 0.952881 8.5 0.952881C5.89617 0.952881 3.77778 3.08122 3.77778 5.69728V6.64617H0.944444C0.693962 6.64617 0.453739 6.74614 0.276621 6.92409C0.0995037 7.10204 0 7.34339 0 7.59505V18.0327C0 19.0794 0.847167 19.9305 1.88889 19.9305ZM5.66667 5.69728C5.66667 4.12784 6.93789 2.85064 8.5 2.85064C10.0621 2.85064 11.3333 4.12784 11.3333 5.69728V6.64617H5.66667V5.69728ZM1.88889 8.54393H3.77778V10.4417H5.66667V8.54393H11.3333V10.4417H13.2222V8.54393H15.1111L15.113 18.0327H1.88889V8.54393Z" fill="white"/>
</svg>
