<svg xmlns="http://www.w3.org/2000/svg" width="65" height="88" fill="none" viewBox="0 0 65 88"><path fill="#BDBDBD" fill-rule="evenodd" d="M52.4249 33.785C53.9408 32.7594 55.534 31.8534 57.1902 31.0753C55.2543 28.2631 53.1359 25.5814 50.8487 23.0477C47.2854 23.2947 43.7769 24.0581 40.4325 25.314C33.636 27.9302 30.8695 24.3904 37.3003 19.98C39.4389 18.5311 41.7355 17.3312 44.1456 16.4036C41.2731 13.8233 38.2287 11.4417 35.0335 9.27525C31.7042 9.57245 28.4309 10.3226 25.3039 11.5049C18.5155 14.117 15.7409 10.5772 22.1799 6.17084C23.362 5.36118 24.6092 4.66136 25.8808 4.0063C15.5256 -0.884255 6.34845 -1.50676 1.97318 3.30242C-5.01019 10.9678 7.51844 24.4433 24.2314 39.6927C40.9322 54.9422 55.4758 66.1962 62.4673 58.5267C66.4201 54.1813 65.5832 46.3166 61.0901 37.5404C59.193 37.9473 57.3323 38.4314 55.5571 39.1191C48.7565 41.7352 45.9859 38.1995 52.4249 33.785Z" clip-rule="evenodd"/><path fill="#BDBDBD" d="M8.52 78.52C8.52 77.976 8.44533 77.576 8.296 77.32C8.14667 77.0533 7.848 76.92 7.4 76.92H7.24V76.44H11.56C12.904 76.44 14.024 76.6267 14.92 77C15.8267 77.3733 16.28 78.12 16.28 79.24C16.28 79.7307 16.0827 80.1947 15.688 80.632C15.304 81.0587 14.76 81.3627 14.056 81.544C15.8587 81.7253 16.76 82.568 16.76 84.072C16.76 85.1813 16.3173 85.9493 15.432 86.376C14.5467 86.792 13.416 87 12.04 87H8.52V78.52ZM11.8 81.224C12.4933 81.224 13.0373 81.064 13.432 80.744C13.8373 80.4133 14.04 79.8853 14.04 79.16C14.04 78.424 13.8 77.896 13.32 77.576C12.8507 77.2453 12.264 77.08 11.56 77.08C11.2827 77.08 10.9627 77.1173 10.6 77.192V81.224H11.8ZM11.8 86.36C12.6853 86.36 13.3573 86.168 13.816 85.784C14.2853 85.4 14.52 84.856 14.52 84.152C14.52 82.68 13.6133 81.944 11.8 81.944H10.6V86.2C10.9733 86.3067 11.3733 86.36 11.8 86.36Z"/><path fill="#BDBDBD" d="M26.2409 87.16C25.6649 87.16 25.1315 86.984 24.6409 86.632C24.1502 86.28 23.6542 85.6827 23.1529 84.84L21.5529 82.168H20.9129V87H18.8169V78.52C18.8169 77.976 18.7422 77.576 18.5929 77.32C18.4435 77.0533 18.1449 76.92 17.6969 76.92H17.5369V76.44H21.9529C23.0409 76.44 24.0329 76.6427 24.9289 77.048C25.8249 77.4427 26.2729 78.2053 26.2729 79.336C26.2729 80.1147 26.0329 80.712 25.5529 81.128C25.0835 81.5333 24.4595 81.8373 23.6809 82.04L25.3609 84.84C25.9902 85.896 26.6515 86.4827 27.3449 86.6V87C27.2595 87.0427 27.1049 87.08 26.8809 87.112C26.6569 87.144 26.4435 87.16 26.2409 87.16ZM21.8729 81.528C22.4702 81.528 22.9769 81.352 23.3929 81C23.8195 80.6373 24.0329 80.072 24.0329 79.304C24.0329 78.536 23.8249 77.976 23.4089 77.624C22.9929 77.2613 22.4915 77.08 21.9049 77.08C21.6275 77.08 21.2969 77.1173 20.9129 77.192V81.528H21.8729Z"/><path fill="#BDBDBD" d="M28.6763 78.52C28.6763 77.976 28.6016 77.576 28.4522 77.32C28.3029 77.0533 28.0042 76.92 27.5562 76.92H27.3962V76.44H34.4523C35.3589 76.44 35.8122 76.8667 35.8122 77.72V79.08H35.3322C35.3322 78.4187 35.1616 77.9333 34.8203 77.624C34.4896 77.3147 33.9936 77.16 33.3322 77.16H30.7563V81.16H34.9162V81.88H30.7563V86.28H33.4922C34.1003 86.28 34.6069 86.1467 35.0122 85.88C35.4176 85.6027 35.7536 85.128 36.0202 84.456L36.4523 84.616L35.9883 85.88C35.8496 86.264 35.6842 86.5467 35.4922 86.728C35.3002 86.9093 35.0016 87 34.5962 87H28.6763V78.52Z"/><path fill="#BDBDBD" d="M46.798 87.064C46.126 87.064 45.518 86.9253 44.974 86.648C44.43 86.36 43.9873 85.8053 43.646 84.984L43.278 84.088H39.022L37.71 87H36.878L41.598 76.44H42.318L45.902 84.984C46.3073 85.976 46.862 86.5093 47.566 86.584V86.984C47.374 87.0373 47.118 87.064 46.798 87.064ZM42.974 83.368L41.214 79.192L39.358 83.368H42.974Z"/><path fill="#BDBDBD" d="M48.6294 78.52C48.6294 77.976 48.5547 77.576 48.4054 77.32C48.256 77.0533 47.9574 76.92 47.5094 76.92H47.3494V76.44H51.7014C53.856 76.44 55.4934 76.8987 56.6134 77.816C57.744 78.7227 58.3094 80.0027 58.3094 81.656C58.3094 82.712 58.0694 83.6453 57.5894 84.456C57.12 85.256 56.416 85.88 55.4774 86.328C54.5494 86.776 53.4294 87 52.1174 87H48.6294V78.52ZM52.0694 86.36C52.816 86.36 53.4774 86.1733 54.0534 85.8C54.64 85.4267 55.0934 84.888 55.4134 84.184C55.744 83.48 55.9094 82.6587 55.9094 81.72C55.9094 80.792 55.744 79.9813 55.4134 79.288C55.0934 78.584 54.64 78.04 54.0534 77.656C53.4667 77.272 52.7947 77.08 52.0374 77.08C51.6427 77.08 51.2 77.1173 50.7094 77.192V86.248C50.9867 86.3013 51.2 86.3333 51.3494 86.344C51.4987 86.3547 51.6427 86.36 51.7814 86.36C51.92 86.36 52.016 86.36 52.0694 86.36Z"/></svg>