<svg xmlns="http://www.w3.org/2000/svg" width="66" height="79" fill="none" viewBox="0 0 66 79"><path fill="#BDBDBD" d="M0 31.2058V41.6092C0 47.3492 14.7696 52 33 52V41.6092C14.7696 41.6092 0 36.9438 0 31.2183V31.2058ZM58.8039 37.6811L33 31.2058V41.6092L58.8039 48.0844C63.3064 46.3037 66 44.0606 66 41.6092V31.2058C66 33.6572 63.3043 35.9024 58.8039 37.6811ZM33 31.2058C14.7696 31.2058 0 26.5509 0 20.815V10.3908C0 4.66119 14.7696 0 33 0C51.2181 0 66 4.66328 66 10.4033V20.8171C66 23.2685 63.3043 25.5012 58.8039 27.2923L33 20.8046V31.2058Z"/><path fill="#BDBDBD" d="M12.872 78.32C11.7733 78.32 10.824 78.0853 10.024 77.616C9.23467 77.136 8.632 76.4853 8.216 75.664C7.8 74.8427 7.592 73.9147 7.592 72.88C7.592 71.8133 7.82133 70.8427 8.28 69.968C8.73867 69.0827 9.368 68.3893 10.168 67.888C10.9787 67.376 11.88 67.12 12.872 67.12C13.8107 67.12 14.5947 67.2427 15.224 67.488C15.8533 67.7227 16.3333 68.032 16.664 68.416C16.856 68.6613 16.9733 68.9653 17.016 69.328C17.0587 69.6907 17.08 70.1973 17.08 70.848H16.6C16.3973 69.8667 16.024 69.12 15.48 68.608C14.936 68.096 14.2267 67.84 13.352 67.84C12.264 67.84 11.4053 68.224 10.776 68.992C10.1467 69.76 9.832 71.056 9.832 72.88C9.832 74.2347 10.12 75.36 10.696 76.256C11.272 77.152 12.1573 77.6 13.352 77.6C14.0987 77.6 14.7813 77.4027 15.4 77.008C16.0293 76.6133 16.536 76.048 16.92 75.312L17.48 75.744C16.968 76.64 16.3493 77.296 15.624 77.712C14.8987 78.1173 13.9813 78.32 12.872 78.32Z"/><path fill="#BDBDBD" d="M27.9074 78.064C27.2354 78.064 26.6274 77.9253 26.0834 77.648C25.5394 77.36 25.0967 76.8053 24.7554 75.984L24.3874 75.088H20.1314L18.8194 78H17.9874L22.7074 67.44H23.4274L27.0114 75.984C27.4167 76.976 27.9714 77.5093 28.6754 77.584V77.984C28.4834 78.0373 28.2274 78.064 27.9074 78.064ZM24.0834 74.368L22.3234 70.192L20.4674 74.368H24.0834Z"/><path fill="#BDBDBD" d="M38.3148 78.16C37.6427 78.16 36.9974 78.0267 36.3787 77.76C35.7707 77.4827 35.1147 76.976 34.4108 76.24L31.8348 73.552V78H29.7547L29.7388 69.52C29.7388 68.976 29.6641 68.576 29.5147 68.32C29.3654 68.0533 29.0667 67.92 28.6187 67.92H28.4587V67.44H30.3787C30.7521 67.44 31.0401 67.504 31.2428 67.632C31.4561 67.76 31.6054 67.9733 31.6908 68.272C31.7868 68.5707 31.8348 68.9867 31.8348 69.52V72.56L34.6027 69.12C34.9974 68.608 35.4187 68.2027 35.8667 67.904C36.3254 67.5947 36.8481 67.44 37.4347 67.44H38.5547V68C37.8934 68 37.3228 68.0853 36.8428 68.256C36.3734 68.416 35.9681 68.7093 35.6268 69.136L33.2428 72.08L36.9388 75.92C37.3334 76.3573 37.7761 76.7413 38.2668 77.072C38.7681 77.392 39.1734 77.5733 39.4827 77.616V78C39.1628 78.1067 38.7734 78.16 38.3148 78.16Z"/><path fill="#BDBDBD" d="M40.8325 69.52C40.8325 68.976 40.7578 68.576 40.6085 68.32C40.4592 68.0533 40.1605 67.92 39.7125 67.92H39.5525V67.44H46.6085C47.5152 67.44 47.9685 67.8667 47.9685 68.72V70.08H47.4885C47.4885 69.4187 47.3178 68.9333 46.9765 68.624C46.6458 68.3147 46.1498 68.16 45.4885 68.16H42.9125V72.16H47.0725V72.88H42.9125V77.28H45.6485C46.2565 77.28 46.7632 77.1467 47.1685 76.88C47.5738 76.6027 47.9098 76.128 48.1765 75.456L48.6085 75.616L48.1445 76.88C48.0058 77.264 47.8405 77.5467 47.6485 77.728C47.4565 77.9093 47.1578 78 46.7525 78H40.8325V69.52Z"/><path fill="#BDBDBD" d="M53.2743 78.272C52.6769 78.272 52.1009 78.192 51.5462 78.032C50.9916 77.8827 50.5382 77.664 50.1862 77.376C49.8342 77.0773 49.6582 76.736 49.6582 76.352V74.48H50.1063C50.2663 75.568 50.6022 76.352 51.1143 76.832C51.6263 77.312 52.3409 77.552 53.2583 77.552C53.8769 77.552 54.3676 77.4187 54.7303 77.152C55.0929 76.8853 55.2743 76.5013 55.2743 76C55.2743 75.5733 55.1409 75.2107 54.8743 74.912C54.6076 74.6133 54.1916 74.288 53.6263 73.936L51.6582 72.752C50.9436 72.336 50.4316 71.904 50.1222 71.456C49.8236 71.008 49.6743 70.4853 49.6743 69.888C49.6743 69.0453 49.9943 68.3787 50.6343 67.888C51.2849 67.3973 52.1596 67.152 53.2583 67.152C53.8556 67.152 54.4316 67.232 54.9863 67.392C55.5409 67.5413 55.9943 67.7653 56.3463 68.064C56.6983 68.352 56.8743 68.688 56.8743 69.072V70.944H56.4263C56.2449 69.856 55.9089 69.072 55.4183 68.592C54.9276 68.112 54.2663 67.872 53.4342 67.872C52.8582 67.872 52.3996 68.0107 52.0583 68.288C51.7276 68.5653 51.5622 68.944 51.5622 69.424C51.5622 69.84 51.6903 70.1867 51.9463 70.464C52.2129 70.7307 52.6396 71.0347 53.2262 71.376L55.1943 72.544C55.9409 72.9813 56.4743 73.408 56.7943 73.824C57.1249 74.2293 57.2903 74.72 57.2903 75.296C57.2903 76.224 56.9382 76.9547 56.2342 77.488C55.5409 78.0107 54.5542 78.272 53.2743 78.272Z"/></svg>