<svg width="106" height="50" viewBox="0 0 106 50" fill="none" xmlns="http://www.w3.org/2000/svg">
<path d="M11.832 45.096C11.496 45.96 10.992 46.536 10.32 46.824L4.416 49.632H4.344C4.2 49.632 4.08 49.56 3.984 49.416C3.888 49.32 3.864 49.224 3.912 49.128L22.632 8.88C22.824 8.544 22.728 8.376 22.344 8.376C15.528 8.376 10.8 8.472 8.16 8.664C5.52 8.856 3.744 9.264 2.832 9.888C1.968 10.512 1.32 11.64 0.888 13.272C0.792 13.368 0.672 13.416 0.528 13.416C0.384 13.416 0.24 13.392 0.096 13.344C0 13.248 -0.024 13.152 0.024 13.056L3.264 0.0960007C3.312 4.76837e-07 3.48 -0.0239999 3.768 0.0239995C4.056 0.0239995 4.176 0.0719995 4.128 0.168C4.08 0.36 4.056 0.600001 4.056 0.888001C4.056 1.368 4.272 1.68 4.704 1.824C5.184 1.968 6.12 2.04 7.512 2.04H26.592C26.784 2.04 26.952 2.16 27.096 2.4C27.288 2.592 27.336 2.784 27.24 2.976L11.832 45.096Z" fill="#BDBDBD"/>
<path d="M48.896 16.544C48.944 16.544 48.968 16.592 48.968 16.688C48.968 16.784 48.944 16.832 48.896 16.832C48.528 16.832 48.232 16.824 48.008 16.808L46.712 16.784L45.416 16.808C45.192 16.824 44.896 16.832 44.528 16.832C44.48 16.832 44.456 16.784 44.456 16.688C44.456 16.592 44.48 16.544 44.528 16.544C44.96 16.544 45.28 16.504 45.488 16.424C45.696 16.328 45.84 16.168 45.92 15.944C46 15.704 46.04 15.352 46.04 14.888V11.072C46.04 10.128 45.872 9.432 45.536 8.984C45.2 8.52 44.68 8.288 43.976 8.288C43.496 8.288 43.008 8.424 42.512 8.696C42.032 8.952 41.584 9.32 41.168 9.8C41.184 9.88 41.192 10.008 41.192 10.184V14.888C41.192 15.368 41.232 15.72 41.312 15.944C41.392 16.168 41.536 16.328 41.744 16.424C41.952 16.504 42.272 16.544 42.704 16.544C42.752 16.544 42.776 16.592 42.776 16.688C42.776 16.784 42.752 16.832 42.704 16.832C42.336 16.832 42.04 16.824 41.816 16.808L40.52 16.784L39.2 16.808C38.992 16.824 38.704 16.832 38.336 16.832C38.288 16.832 38.264 16.784 38.264 16.688C38.264 16.592 38.288 16.544 38.336 16.544C38.768 16.544 39.088 16.504 39.296 16.424C39.504 16.328 39.64 16.168 39.704 15.944C39.784 15.72 39.824 15.368 39.824 14.888V11.072C39.824 10.128 39.656 9.432 39.32 8.984C38.984 8.52 38.472 8.288 37.784 8.288C37.304 8.288 36.824 8.416 36.344 8.672C35.864 8.928 35.424 9.288 35.024 9.752V14.888C35.024 15.368 35.056 15.72 35.12 15.944C35.2 16.168 35.344 16.328 35.552 16.424C35.76 16.504 36.08 16.544 36.512 16.544C36.56 16.544 36.584 16.592 36.584 16.688C36.584 16.784 36.56 16.832 36.512 16.832C36.144 16.832 35.856 16.824 35.648 16.808L34.352 16.784L33.032 16.808C32.824 16.824 32.536 16.832 32.168 16.832C32.12 16.832 32.096 16.784 32.096 16.688C32.096 16.592 32.12 16.544 32.168 16.544C32.6 16.544 32.92 16.504 33.128 16.424C33.336 16.328 33.472 16.168 33.536 15.944C33.616 15.72 33.656 15.368 33.656 14.888V10.136C33.656 9.592 33.592 9.2 33.464 8.96C33.336 8.72 33.12 8.6 32.816 8.6C32.56 8.6 32.128 8.72 31.52 8.96H31.472C31.408 8.96 31.36 8.928 31.328 8.864C31.312 8.784 31.336 8.728 31.4 8.696L34.184 7.376C34.216 7.36 34.264 7.352 34.328 7.352C34.472 7.352 34.624 7.536 34.784 7.904C34.944 8.272 35.024 8.744 35.024 9.32V9.344C35.6 8.64 36.176 8.128 36.752 7.808C37.328 7.488 37.928 7.328 38.552 7.328C39.272 7.328 39.856 7.504 40.304 7.856C40.752 8.208 41.032 8.736 41.144 9.44C41.736 8.72 42.328 8.192 42.92 7.856C43.512 7.504 44.128 7.328 44.768 7.328C45.616 7.328 46.264 7.576 46.712 8.072C47.176 8.552 47.408 9.272 47.408 10.232V14.888C47.408 15.368 47.44 15.72 47.504 15.944C47.584 16.168 47.728 16.328 47.936 16.424C48.144 16.504 48.464 16.544 48.896 16.544Z" fill="#BDBDBD"/>
<path d="M50.6647 16.832C50.6327 16.832 50.6167 16.784 50.6167 16.688C50.6167 16.592 50.6327 16.544 50.6647 16.544C51.0967 16.544 51.4167 16.504 51.6247 16.424C51.8487 16.328 52.0007 16.168 52.0807 15.944C52.1607 15.704 52.2007 15.352 52.2007 14.888V10.4C52.2007 9.824 52.1367 9.408 52.0087 9.152C51.8967 8.896 51.6967 8.768 51.4087 8.768C51.1207 8.768 50.7607 8.88 50.3287 9.104H50.3047C50.2407 9.104 50.1927 9.064 50.1607 8.984C50.1287 8.904 50.1367 8.848 50.1847 8.816L53.3047 7.376L53.4007 7.352C53.4327 7.352 53.4727 7.376 53.5207 7.424C53.5687 7.456 53.5927 7.496 53.5927 7.544C53.5927 7.656 53.5847 7.976 53.5687 8.504C53.5527 9.032 53.5447 9.656 53.5447 10.376V14.888C53.5447 15.368 53.5847 15.72 53.6647 15.944C53.7447 16.168 53.8887 16.328 54.0967 16.424C54.3047 16.504 54.6247 16.544 55.0567 16.544C55.1047 16.544 55.1287 16.592 55.1287 16.688C55.1287 16.784 55.1047 16.832 55.0567 16.832C54.6887 16.832 54.3927 16.824 54.1687 16.808L52.8727 16.784L51.5767 16.808C51.3527 16.824 51.0487 16.832 50.6647 16.832ZM52.6807 4.544C52.3447 4.544 52.0807 4.456 51.8887 4.28C51.7127 4.104 51.6247 3.856 51.6247 3.536C51.6247 3.216 51.7127 2.968 51.8887 2.792C52.0807 2.616 52.3447 2.528 52.6807 2.528C53.0007 2.528 53.2487 2.616 53.4247 2.792C53.6007 2.968 53.6887 3.216 53.6887 3.536C53.6887 3.856 53.6007 4.104 53.4247 4.28C53.2487 4.456 53.0007 4.544 52.6807 4.544Z" fill="#BDBDBD"/>
<path d="M67.8352 16.544C67.8832 16.544 67.9072 16.592 67.9072 16.688C67.9072 16.784 67.8832 16.832 67.8352 16.832C67.4672 16.832 67.1792 16.824 66.9712 16.808L65.6752 16.784L64.3552 16.808C64.1472 16.824 63.8592 16.832 63.4912 16.832C63.4432 16.832 63.4192 16.784 63.4192 16.688C63.4192 16.592 63.4432 16.544 63.4912 16.544C63.9232 16.544 64.2432 16.504 64.4512 16.424C64.6592 16.328 64.7952 16.168 64.8592 15.944C64.9392 15.72 64.9792 15.368 64.9792 14.888V11C64.9792 10.056 64.7952 9.36 64.4272 8.912C64.0752 8.464 63.5232 8.24 62.7712 8.24C62.2752 8.24 61.7712 8.376 61.2592 8.648C60.7632 8.904 60.3072 9.264 59.8912 9.728V14.888C59.8912 15.368 59.9232 15.72 59.9872 15.944C60.0672 16.168 60.2112 16.328 60.4192 16.424C60.6272 16.504 60.9472 16.544 61.3792 16.544C61.4272 16.544 61.4512 16.592 61.4512 16.688C61.4512 16.784 61.4272 16.832 61.3792 16.832C61.0112 16.832 60.7232 16.824 60.5152 16.808L59.2192 16.784L57.8992 16.808C57.6912 16.824 57.4032 16.832 57.0352 16.832C56.9872 16.832 56.9632 16.784 56.9632 16.688C56.9632 16.592 56.9872 16.544 57.0352 16.544C57.4672 16.544 57.7872 16.504 57.9952 16.424C58.2032 16.328 58.3392 16.168 58.4032 15.944C58.4832 15.72 58.5232 15.368 58.5232 14.888V10.136C58.5232 9.592 58.4592 9.2 58.3312 8.96C58.2032 8.72 57.9872 8.6 57.6832 8.6C57.4272 8.6 56.9952 8.72 56.3872 8.96H56.3392C56.2752 8.96 56.2272 8.928 56.1952 8.864C56.1792 8.784 56.2032 8.728 56.2672 8.696L59.0512 7.376C59.0832 7.36 59.1312 7.352 59.1952 7.352C59.3392 7.352 59.4912 7.536 59.6512 7.904C59.8112 8.272 59.8912 8.744 59.8912 9.32C60.4992 8.616 61.0992 8.096 61.6912 7.76C62.2992 7.424 62.9232 7.256 63.5632 7.256C64.4592 7.256 65.1472 7.504 65.6272 8C66.1072 8.496 66.3472 9.224 66.3472 10.184V14.888C66.3472 15.368 66.3792 15.72 66.4432 15.944C66.5232 16.168 66.6672 16.328 66.8752 16.424C67.0832 16.504 67.4032 16.544 67.8352 16.544Z" fill="#BDBDBD"/>
<path d="M80.0416 15.464C80.1056 15.464 80.1456 15.504 80.1616 15.584C80.1936 15.648 80.1776 15.696 80.1136 15.728L77.3056 17.048L77.2096 17.072C77.0496 17.072 76.8976 16.888 76.7536 16.52C76.6096 16.152 76.5376 15.672 76.5376 15.08V14.984C75.9136 15.688 75.2896 16.208 74.6656 16.544C74.0416 16.864 73.3936 17.024 72.7216 17.024C71.9216 17.024 71.2976 16.776 70.8496 16.28C70.4016 15.768 70.1776 15.032 70.1776 14.072V10.4C70.1776 9.776 70.1216 9.328 70.0096 9.056C69.8976 8.768 69.7136 8.624 69.4576 8.624C69.2336 8.624 68.9616 8.704 68.6416 8.864H68.6176C68.5536 8.864 68.5056 8.824 68.4736 8.744C68.4416 8.648 68.4576 8.592 68.5216 8.576L71.1856 7.376L71.2816 7.352C71.3296 7.352 71.3776 7.376 71.4256 7.424C71.4896 7.456 71.5216 7.496 71.5216 7.544V13.28C71.5216 15.136 72.1936 16.064 73.5376 16.064C74.0496 16.064 74.5696 15.936 75.0976 15.68C75.6256 15.408 76.1056 15.04 76.5376 14.576V10.4C76.5376 9.76 76.4816 9.304 76.3696 9.032C76.2736 8.76 76.0896 8.624 75.8176 8.624C75.5936 8.624 75.3216 8.704 75.0016 8.864H74.9776C74.9136 8.864 74.8656 8.824 74.8336 8.744C74.8176 8.648 74.8416 8.592 74.9056 8.576L77.5696 7.376L77.6416 7.352C77.6896 7.352 77.7376 7.376 77.7856 7.424C77.8496 7.456 77.8816 7.496 77.8816 7.544V14.264C77.8816 14.808 77.9456 15.2 78.0736 15.44C78.2016 15.68 78.4176 15.8 78.7216 15.8C78.9936 15.8 79.4176 15.688 79.9936 15.464H80.0416Z" fill="#BDBDBD"/>
<path d="M87.6536 15.584C87.7176 15.584 87.7656 15.624 87.7976 15.704C87.8296 15.768 87.8216 15.816 87.7736 15.848C87.1816 16.312 86.6456 16.64 86.1656 16.832C85.7016 17.024 85.2136 17.12 84.7016 17.12C84.0296 17.12 83.4776 16.968 83.0456 16.664C82.6136 16.36 82.3976 15.856 82.3976 15.152V9.512C82.3976 9.096 82.3656 8.8 82.3016 8.624C82.2536 8.448 82.1496 8.336 81.9896 8.288C81.8296 8.224 81.5576 8.192 81.1736 8.192C81.1096 8.192 81.0776 8.144 81.0776 8.048C81.0776 7.936 81.1096 7.88 81.1736 7.88C81.8136 7.864 82.3336 7.696 82.7336 7.376C83.1336 7.04 83.3656 6.6 83.4296 6.056C83.4296 6.008 83.4936 5.984 83.6216 5.984C83.7336 5.984 83.7896 6.008 83.7896 6.056V7.832C84.5896 7.816 85.7016 7.736 87.1256 7.592C87.1576 7.592 87.1896 7.656 87.2216 7.784C87.2696 7.896 87.2936 8.024 87.2936 8.168C87.2936 8.296 87.2616 8.432 87.1976 8.576C87.1496 8.704 87.0936 8.76 87.0296 8.744C86.1496 8.52 85.0696 8.392 83.7896 8.36V14.336C83.7896 14.992 83.9496 15.48 84.2696 15.8C84.6056 16.12 85.0776 16.28 85.6856 16.28C86.4216 16.28 87.0616 16.056 87.6056 15.608L87.6536 15.584Z" fill="#BDBDBD"/>
<path d="M97.0349 15.488C97.0829 15.488 97.1229 15.52 97.1549 15.584C97.2029 15.632 97.2109 15.68 97.1789 15.728C96.0909 16.656 94.9229 17.12 93.6749 17.12C92.7309 17.12 91.9149 16.904 91.2269 16.472C90.5389 16.04 90.0189 15.48 89.6669 14.792C89.3309 14.088 89.1629 13.328 89.1629 12.512C89.1629 11.552 89.3869 10.68 89.8349 9.896C90.2989 9.112 90.9229 8.496 91.7069 8.048C92.4909 7.584 93.3629 7.352 94.3229 7.352C95.1869 7.352 95.8589 7.568 96.3389 8C96.8189 8.416 97.0589 8.992 97.0589 9.728C97.0589 9.92 97.0349 10.064 96.9869 10.16C96.9549 10.24 96.8829 10.28 96.7709 10.28L90.8669 10.328C90.7869 10.76 90.7469 11.176 90.7469 11.576C90.7469 12.968 91.0829 14.104 91.7549 14.984C92.4269 15.848 93.3549 16.28 94.5389 16.28C95.4509 16.28 96.2749 16.016 97.0109 15.488H97.0349ZM93.5069 7.832C92.8509 7.832 92.2989 8.024 91.8509 8.408C91.4189 8.776 91.1149 9.304 90.9389 9.992L95.4029 9.896C95.4029 9.24 95.2269 8.736 94.8749 8.384C94.5389 8.016 94.0829 7.832 93.5069 7.832Z" fill="#BDBDBD"/>
<path d="M100.496 9.032C100.496 9.592 100.68 10.04 101.048 10.376C101.416 10.696 101.96 11.04 102.68 11.408C103.24 11.696 103.672 11.944 103.976 12.152C104.296 12.36 104.568 12.632 104.792 12.968C105.016 13.304 105.128 13.712 105.128 14.192C105.128 15.008 104.824 15.696 104.216 16.256C103.608 16.816 102.784 17.096 101.744 17.096C100.896 17.096 100.128 16.856 99.4398 16.376C99.3438 16.312 99.2958 16.216 99.2958 16.088L99.2478 14.216C99.2478 14.168 99.2878 14.144 99.3678 14.144C99.4638 14.128 99.5198 14.144 99.5358 14.192C99.8398 14.992 100.232 15.6 100.712 16.016C101.208 16.432 101.776 16.64 102.416 16.64C102.912 16.64 103.296 16.528 103.568 16.304C103.856 16.064 104 15.712 104 15.248C104 14.8 103.896 14.424 103.688 14.12C103.496 13.8 103.256 13.552 102.968 13.376C102.68 13.184 102.288 12.96 101.792 12.704C101.264 12.448 100.84 12.216 100.52 12.008C100.216 11.8 99.9518 11.528 99.7278 11.192C99.5198 10.856 99.4158 10.44 99.4158 9.944C99.4158 9.08 99.7358 8.424 100.376 7.976C101.032 7.512 101.8 7.28 102.68 7.28C103.32 7.28 103.904 7.4 104.432 7.64C104.528 7.672 104.584 7.712 104.6 7.76C104.632 7.792 104.648 7.84 104.648 7.904C104.648 8.224 104.64 8.472 104.624 8.648L104.6 9.656C104.6 9.688 104.552 9.704 104.456 9.704C104.36 9.704 104.312 9.688 104.312 9.656C104.312 9.32 104.184 9.008 103.928 8.72C103.672 8.416 103.352 8.176 102.968 8C102.584 7.824 102.2 7.736 101.816 7.736C101.4 7.736 101.072 7.848 100.832 8.072C100.608 8.28 100.496 8.6 100.496 9.032Z" fill="#BDBDBD"/>
<path d="M35.134 28.636C35.134 29.332 35.308 29.9507 35.656 30.492C36.0233 31.0333 36.468 31.507 36.99 31.913C37.512 32.319 38.2177 32.812 39.107 33.392C40.0737 34.0107 40.847 34.552 41.427 35.016C42.007 35.48 42.5 36.0503 42.906 36.727C43.312 37.3843 43.515 38.148 43.515 39.018C43.515 40.0233 43.2443 40.9223 42.703 41.715C42.1617 42.4883 41.4077 43.0973 40.441 43.542C39.4937 43.9673 38.4303 44.18 37.251 44.18C36.381 44.18 35.4723 44.064 34.525 43.832C33.5777 43.5807 32.9397 43.31 32.611 43.02C32.5143 42.9427 32.437 42.875 32.379 42.817C32.3403 42.7397 32.321 42.6237 32.321 42.469L32.234 37.858V37.829C32.234 37.7517 32.2823 37.713 32.379 37.713C32.4757 37.6937 32.5337 37.7227 32.553 37.8C33.133 38.9793 33.6357 39.9363 34.061 40.671C34.5057 41.4057 35.0567 42.0533 35.714 42.614C36.3907 43.1747 37.1543 43.455 38.005 43.455C38.7783 43.455 39.4163 43.252 39.919 42.846C40.4217 42.4207 40.673 41.7053 40.673 40.7C40.673 39.8493 40.4797 39.105 40.093 38.467C39.7257 37.829 39.2713 37.2877 38.73 36.843C38.1887 36.3983 37.4443 35.8667 36.497 35.248C35.569 34.6487 34.844 34.1363 34.322 33.711C33.8193 33.2857 33.3843 32.7733 33.017 32.174C32.6497 31.5747 32.466 30.869 32.466 30.057C32.466 29.0323 32.756 28.172 33.336 27.476C33.9353 26.7607 34.699 26.2387 35.627 25.91C36.555 25.562 37.5313 25.388 38.556 25.388C39.2327 25.388 39.919 25.4557 40.615 25.591C41.311 25.707 41.8717 25.852 42.297 26.026C42.471 26.1033 42.587 26.1903 42.645 26.287C42.703 26.3643 42.732 26.4707 42.732 26.606V30.869C42.732 30.927 42.6837 30.9753 42.587 31.014C42.4903 31.0333 42.4323 31.014 42.413 30.956L42.181 30.405C41.6977 29.187 41.1273 28.1527 40.47 27.302C39.832 26.4513 38.933 26.026 37.773 26.026C36.9997 26.026 36.3617 26.2483 35.859 26.693C35.3757 27.1377 35.134 27.7853 35.134 28.636Z" fill="#BDBDBD"/>
<path d="M66.2408 43.484C66.2988 43.484 66.3278 43.542 66.3278 43.658C66.3278 43.774 66.2988 43.832 66.2408 43.832C65.5641 43.832 65.0228 43.8223 64.6168 43.803L62.3838 43.774L59.7738 43.803C59.4258 43.8223 58.9521 43.832 58.3528 43.832C58.2948 43.832 58.2658 43.774 58.2658 43.658C58.2658 43.542 58.2948 43.484 58.3528 43.484C59.0681 43.484 59.5901 43.4357 59.9188 43.339C60.2475 43.2423 60.4698 43.0587 60.5858 42.788C60.7018 42.5173 60.7598 42.0823 60.7598 41.483V34.813H51.3928V41.483C51.3928 42.063 51.4508 42.498 51.5668 42.788C51.6828 43.0587 51.9051 43.2423 52.2338 43.339C52.5625 43.4357 53.0845 43.484 53.7998 43.484C53.8385 43.484 53.8578 43.542 53.8578 43.658C53.8578 43.774 53.8385 43.832 53.7998 43.832C53.1231 43.832 52.5818 43.8223 52.1758 43.803L49.6528 43.774L47.4778 43.803C47.0911 43.8223 46.5595 43.832 45.8828 43.832C45.8441 43.832 45.8248 43.774 45.8248 43.658C45.8248 43.542 45.8441 43.484 45.8828 43.484C46.5595 43.484 47.0525 43.4357 47.3618 43.339C47.6711 43.2423 47.8838 43.0587 47.9998 42.788C48.1158 42.498 48.1738 42.063 48.1738 41.483V28.056C48.1738 27.476 48.1158 27.0507 47.9998 26.78C47.8838 26.5093 47.6711 26.3257 47.3618 26.229C47.0718 26.113 46.5981 26.055 45.9408 26.055C45.8828 26.055 45.8538 25.997 45.8538 25.881C45.8538 25.765 45.8828 25.707 45.9408 25.707L47.5068 25.736C48.3961 25.7747 49.1115 25.794 49.6528 25.794C50.3875 25.794 51.2381 25.7747 52.2048 25.736L53.7998 25.707C53.8385 25.707 53.8578 25.765 53.8578 25.881C53.8578 25.997 53.8385 26.055 53.7998 26.055C53.1038 26.055 52.5915 26.113 52.2628 26.229C51.9341 26.345 51.7021 26.548 51.5668 26.838C51.4508 27.1087 51.3928 27.534 51.3928 28.114V34.001H60.7598V28.114C60.7598 27.534 60.7018 27.1087 60.5858 26.838C60.4698 26.548 60.2475 26.345 59.9188 26.229C59.5901 26.113 59.0681 26.055 58.3528 26.055C58.2948 26.055 58.2658 25.997 58.2658 25.881C58.2658 25.765 58.2948 25.707 58.3528 25.707L59.7738 25.736C60.7405 25.7747 61.6105 25.794 62.3838 25.794C62.9058 25.794 63.6501 25.7747 64.6168 25.736L66.2408 25.707C66.2988 25.707 66.3278 25.765 66.3278 25.881C66.3278 25.997 66.2988 26.055 66.2408 26.055C65.5835 26.055 65.0905 26.113 64.7618 26.229C64.4525 26.3257 64.2398 26.5093 64.1238 26.78C64.0271 27.0507 63.9788 27.476 63.9788 28.056V41.483C63.9788 42.063 64.0271 42.498 64.1238 42.788C64.2398 43.0587 64.4525 43.2423 64.7618 43.339C65.0711 43.4357 65.5641 43.484 66.2408 43.484Z" fill="#BDBDBD"/>
<path d="M77.7733 44.18C75.9753 44.18 74.3706 43.7643 72.9593 42.933C71.5673 42.0823 70.4846 40.9417 69.7113 39.511C68.9573 38.061 68.5803 36.4853 68.5803 34.784C68.5803 32.7927 69.083 31.0913 70.0883 29.68C71.0936 28.2493 72.3793 27.1763 73.9453 26.461C75.5306 25.7457 77.145 25.388 78.7883 25.388C80.625 25.388 82.2393 25.823 83.6313 26.693C85.0233 27.5437 86.0866 28.6747 86.8213 30.086C87.5753 31.4973 87.9523 32.9957 87.9523 34.581C87.9523 36.3403 87.4883 37.9547 86.5603 39.424C85.6323 40.8933 84.3853 42.0533 82.8193 42.904C81.2726 43.7547 79.5906 44.18 77.7733 44.18ZM78.7303 43.455C79.813 43.455 80.7796 43.1457 81.6303 42.527C82.5003 41.889 83.177 40.9707 83.6603 39.772C84.1436 38.554 84.3853 37.104 84.3853 35.422C84.3853 33.6433 84.1146 32.058 83.5733 30.666C83.032 29.2547 82.249 28.1527 81.2243 27.36C80.1996 26.5673 79.001 26.171 77.6283 26.171C75.869 26.171 74.5156 26.838 73.5683 28.172C72.621 29.4867 72.1473 31.333 72.1473 33.711C72.1473 35.5863 72.4276 37.2683 72.9883 38.757C73.5683 40.2263 74.3513 41.3767 75.3373 42.208C76.3426 43.0393 77.4736 43.455 78.7303 43.455Z" fill="#BDBDBD"/>
<path d="M95.6264 41.367C95.6264 41.9857 95.6941 42.44 95.8294 42.73C95.9647 43.0007 96.2161 43.194 96.5834 43.31C96.9701 43.426 97.5791 43.484 98.4104 43.484C98.4684 43.484 98.4974 43.542 98.4974 43.658C98.4974 43.774 98.4684 43.832 98.4104 43.832C97.6178 43.832 96.9991 43.8223 96.5544 43.803L94.0314 43.774L91.9144 43.803C91.5277 43.8223 91.0057 43.832 90.3484 43.832C90.2904 43.832 90.2614 43.774 90.2614 43.658C90.2614 43.542 90.2904 43.484 90.3484 43.484C90.9671 43.484 91.4117 43.4357 91.6824 43.339C91.9724 43.2423 92.1657 43.0587 92.2624 42.788C92.3591 42.498 92.4074 42.063 92.4074 41.483V28.056C92.4074 27.476 92.3591 27.0507 92.2624 26.78C92.1657 26.5093 91.9724 26.3257 91.6824 26.229C91.3924 26.113 90.9477 26.055 90.3484 26.055C90.2904 26.055 90.2614 25.997 90.2614 25.881C90.2614 25.765 90.2904 25.707 90.3484 25.707L91.8854 25.736C92.7747 25.7747 93.4804 25.794 94.0024 25.794C94.4664 25.794 95.0174 25.765 95.6554 25.707C95.9067 25.6877 96.2257 25.6683 96.6124 25.649C96.9991 25.6297 97.4437 25.62 97.9464 25.62C99.9184 25.62 101.475 26.0357 102.615 26.867C103.756 27.679 104.326 28.9453 104.326 30.666C104.326 31.8647 104.017 32.8797 103.398 33.711C102.78 34.5423 101.977 35.1707 100.991 35.596C100.025 36.0213 99.0291 36.234 98.0044 36.234C97.4824 36.234 97.0281 36.1857 96.6414 36.089C96.6027 36.089 96.5834 36.0407 96.5834 35.944C96.5834 35.886 96.5931 35.828 96.6124 35.77C96.6511 35.712 96.6898 35.6927 96.7284 35.712C97.0184 35.7893 97.3471 35.828 97.7144 35.828C98.6038 35.828 99.3384 35.4123 99.9184 34.581C100.518 33.7497 100.817 32.5703 100.817 31.043C100.817 29.5157 100.489 28.3363 99.8314 27.505C99.1934 26.6737 98.2558 26.258 97.0184 26.258C96.4771 26.258 96.1097 26.3837 95.9164 26.635C95.7231 26.8863 95.6264 27.3793 95.6264 28.114V41.367Z" fill="#BDBDBD"/>
</svg>
