<svg width="109" height="42" viewBox="0 0 109 42" fill="none" xmlns="http://www.w3.org/2000/svg">
<path d="M33.322 30.1C33.1214 30.1 32.9637 30.0427 32.849 29.928C32.7344 29.8133 32.677 29.6557 32.677 29.455V0.644999C32.677 0.444334 32.7344 0.286667 32.849 0.172C32.9637 0.0573334 33.1214 0 33.322 0H44.373C46.695 0 48.7447 0.401333 50.522 1.204C52.328 2.00667 53.7184 3.139 54.693 4.601C55.6677 6.063 56.155 7.75433 56.155 9.675V20.425C56.155 22.3457 55.6677 24.037 54.693 25.499C53.7184 26.961 52.328 28.0933 50.522 28.896C48.7447 29.6987 46.695 30.1 44.373 30.1H33.322ZM40.761 22.962C40.761 23.1053 40.8327 23.177 40.976 23.177H44.674C45.6487 23.177 46.4514 22.8043 47.082 22.059C47.7127 21.285 48.0424 20.2817 48.071 19.049V11.051C48.071 9.81833 47.7557 8.82933 47.125 8.084C46.4944 7.31 45.663 6.923 44.631 6.923H40.976C40.8327 6.923 40.761 6.99467 40.761 7.138V22.962Z" fill="#C4C4C4"/>
<path d="M81.0591 6.278C81.0591 6.47867 81.0017 6.63633 80.8871 6.751C80.7724 6.86567 80.6147 6.923 80.4141 6.923H67.5571C67.4137 6.923 67.3421 6.99467 67.3421 7.138V11.18C67.3421 11.3233 67.4137 11.395 67.5571 11.395H75.5121C75.7127 11.395 75.8704 11.4523 75.9851 11.567C76.0997 11.6817 76.1571 11.8393 76.1571 12.04V17.63C76.1571 17.8307 76.0997 17.9883 75.9851 18.103C75.8704 18.2177 75.7127 18.275 75.5121 18.275H67.5571C67.4137 18.275 67.3421 18.3467 67.3421 18.49V22.962C67.3421 23.1053 67.4137 23.177 67.5571 23.177H80.4141C80.6147 23.177 80.7724 23.2343 80.8871 23.349C81.0017 23.4637 81.0591 23.6213 81.0591 23.822V29.455C81.0591 29.6557 81.0017 29.8133 80.8871 29.928C80.7724 30.0427 80.6147 30.1 80.4141 30.1H59.9031C59.7024 30.1 59.5447 30.0427 59.4301 29.928C59.3154 29.8133 59.2581 29.6557 59.2581 29.455V0.644999C59.2581 0.444334 59.3154 0.286667 59.4301 0.172C59.5447 0.0573334 59.7024 0 59.9031 0H80.4141C80.6147 0 80.7724 0.0573334 80.8871 0.172C81.0017 0.286667 81.0591 0.444334 81.0591 0.644999V6.278Z" fill="#C4C4C4"/>
<path d="M100.638 0.644999C100.638 0.444334 100.695 0.286667 100.81 0.172C100.924 0.0573334 101.082 0 101.283 0H108.077C108.277 0 108.435 0.0573334 108.55 0.172C108.664 0.286667 108.722 0.444334 108.722 0.644999V29.455C108.722 29.6557 108.664 29.8133 108.55 29.928C108.435 30.0427 108.277 30.1 108.077 30.1H101.584C101.24 30.1 100.982 29.9567 100.81 29.67L92.0375 15.05C91.9802 14.964 91.9229 14.9353 91.8655 14.964C91.8082 14.964 91.7795 15.0213 91.7795 15.136L91.8655 29.455C91.8655 29.6557 91.8082 29.8133 91.6935 29.928C91.5788 30.0427 91.4212 30.1 91.2205 30.1H84.4265C84.2258 30.1 84.0682 30.0427 83.9535 29.928C83.8388 29.8133 83.7815 29.6557 83.7815 29.455V0.644999C83.7815 0.444334 83.8388 0.286667 83.9535 0.172C84.0682 0.0573334 84.2258 0 84.4265 0H90.9195C91.2635 0 91.5215 0.143333 91.6935 0.43L100.423 15.05C100.48 15.136 100.537 15.179 100.595 15.179C100.652 15.1503 100.681 15.0787 100.681 14.964L100.638 0.644999Z" fill="#C4C4C4"/>
<path d="M3.69602 34.848C3.98402 34.848 4.21202 34.904 4.38002 35.016C4.44402 35.048 4.46802 35.108 4.45202 35.196L4.20002 36.564C4.19202 36.66 4.13602 36.688 4.03202 36.648C3.91202 36.608 3.77202 36.588 3.61202 36.588C3.54802 36.588 3.46002 36.596 3.34802 36.612C3.06002 36.636 2.81602 36.744 2.61602 36.936C2.41602 37.12 2.31602 37.368 2.31602 37.68V40.956C2.31602 40.996 2.30002 41.032 2.26802 41.064C2.24402 41.088 2.21202 41.1 2.17202 41.1H0.768023C0.728024 41.1 0.692023 41.088 0.660023 41.064C0.636023 41.032 0.624023 40.996 0.624023 40.956V35.076C0.624023 35.036 0.636023 35.004 0.660023 34.98C0.692023 34.948 0.728024 34.932 0.768023 34.932H2.17202C2.21202 34.932 2.24402 34.948 2.26802 34.98C2.30002 35.004 2.31602 35.036 2.31602 35.076V35.532C2.31602 35.556 2.32402 35.572 2.34002 35.58C2.35602 35.588 2.36802 35.584 2.37602 35.568C2.70402 35.088 3.14402 34.848 3.69602 34.848Z" fill="#C4C4C4"/>
<path d="M16.2254 37.38C16.2734 37.684 16.2894 38.024 16.2734 38.4C16.2654 38.496 16.2134 38.544 16.1174 38.544H12.4094C12.3614 38.544 12.3454 38.564 12.3614 38.604C12.3854 38.764 12.4294 38.924 12.4934 39.084C12.7014 39.532 13.1254 39.756 13.7654 39.756C14.2774 39.748 14.6814 39.54 14.9774 39.132C15.0094 39.084 15.0454 39.06 15.0854 39.06C15.1094 39.06 15.1374 39.076 15.1694 39.108L16.0334 39.96C16.0734 40 16.0934 40.036 16.0934 40.068C16.0934 40.084 16.0774 40.116 16.0454 40.164C15.7814 40.492 15.4414 40.748 15.0254 40.932C14.6094 41.108 14.1534 41.196 13.6574 41.196C12.9694 41.196 12.3854 41.04 11.9054 40.728C11.4334 40.416 11.0934 39.98 10.8854 39.42C10.7174 39.02 10.6334 38.496 10.6334 37.848C10.6334 37.408 10.6934 37.02 10.8134 36.684C10.9974 36.116 11.3174 35.664 11.7734 35.328C12.2374 34.992 12.7854 34.824 13.4174 34.824C14.2174 34.824 14.8574 35.056 15.3374 35.52C15.8254 35.984 16.1214 36.604 16.2254 37.38ZM13.4294 36.288C12.9254 36.288 12.5934 36.524 12.4334 36.996C12.4014 37.1 12.3734 37.228 12.3494 37.38C12.3494 37.42 12.3694 37.44 12.4094 37.44H14.4854C14.5334 37.44 14.5494 37.42 14.5334 37.38C14.4934 37.148 14.4734 37.036 14.4734 37.044C14.4014 36.804 14.2734 36.62 14.0894 36.492C13.9134 36.356 13.6934 36.288 13.4294 36.288Z" fill="#C4C4C4"/>
<path d="M25.3942 41.184C24.8582 41.184 24.3902 41.108 23.9902 40.956C23.5902 40.804 23.2782 40.592 23.0542 40.32C22.8382 40.048 22.7302 39.74 22.7302 39.396V39.276C22.7302 39.236 22.7422 39.204 22.7662 39.18C22.7982 39.148 22.8342 39.132 22.8742 39.132H24.2062C24.2462 39.132 24.2782 39.148 24.3022 39.18C24.3342 39.204 24.3502 39.236 24.3502 39.276V39.288C24.3502 39.464 24.4462 39.616 24.6382 39.744C24.8382 39.864 25.0862 39.924 25.3822 39.924C25.6542 39.924 25.8742 39.872 26.0422 39.768C26.2102 39.656 26.2942 39.52 26.2942 39.36C26.2942 39.216 26.2222 39.108 26.0782 39.036C25.9342 38.964 25.6982 38.888 25.3702 38.808C24.9942 38.712 24.6982 38.62 24.4822 38.532C23.9702 38.356 23.5622 38.14 23.2582 37.884C22.9542 37.628 22.8022 37.26 22.8022 36.78C22.8022 36.188 23.0302 35.72 23.4862 35.376C23.9502 35.024 24.5622 34.848 25.3222 34.848C25.8342 34.848 26.2822 34.932 26.6662 35.1C27.0502 35.26 27.3462 35.488 27.5542 35.784C27.7702 36.08 27.8782 36.416 27.8782 36.792C27.8782 36.832 27.8622 36.868 27.8302 36.9C27.8062 36.924 27.7742 36.936 27.7342 36.936H26.4502C26.4102 36.936 26.3742 36.924 26.3422 36.9C26.3182 36.868 26.3062 36.832 26.3062 36.792C26.3062 36.616 26.2142 36.468 26.0302 36.348C25.8542 36.228 25.6182 36.168 25.3222 36.168C25.0582 36.168 24.8422 36.216 24.6742 36.312C24.5062 36.408 24.4222 36.54 24.4222 36.708C24.4222 36.868 24.5022 36.988 24.6622 37.068C24.8302 37.148 25.1062 37.232 25.4902 37.32C25.5782 37.344 25.6782 37.372 25.7902 37.404C25.9022 37.428 26.0222 37.46 26.1502 37.5C26.7182 37.668 27.1662 37.884 27.4942 38.148C27.8222 38.412 27.9862 38.796 27.9862 39.3C27.9862 39.892 27.7502 40.356 27.2782 40.692C26.8142 41.02 26.1862 41.184 25.3942 41.184Z" fill="#C4C4C4"/>
<path d="M38.1859 36.144C38.1859 36.184 38.1699 36.22 38.1379 36.252C38.1139 36.276 38.0819 36.288 38.0419 36.288H36.8899C36.8499 36.288 36.8299 36.308 36.8299 36.348V38.892C36.8299 39.156 36.8819 39.352 36.9859 39.48C37.0979 39.608 37.2739 39.672 37.5139 39.672H37.9099C37.9499 39.672 37.9819 39.688 38.0059 39.72C38.0379 39.744 38.0539 39.776 38.0539 39.816V40.956C38.0539 41.044 38.0059 41.096 37.9099 41.112C37.5739 41.128 37.3339 41.136 37.1899 41.136C36.5259 41.136 36.0299 41.028 35.7019 40.812C35.3739 40.588 35.2059 40.172 35.1979 39.564V36.348C35.1979 36.308 35.1779 36.288 35.1379 36.288H34.4539C34.4139 36.288 34.3779 36.276 34.3459 36.252C34.3219 36.22 34.3099 36.184 34.3099 36.144V35.076C34.3099 35.036 34.3219 35.004 34.3459 34.98C34.3779 34.948 34.4139 34.932 34.4539 34.932H35.1379C35.1779 34.932 35.1979 34.912 35.1979 34.872V33.444C35.1979 33.404 35.2099 33.372 35.2339 33.348C35.2659 33.316 35.3019 33.3 35.3419 33.3H36.6859C36.7259 33.3 36.7579 33.316 36.7819 33.348C36.8139 33.372 36.8299 33.404 36.8299 33.444V34.872C36.8299 34.912 36.8499 34.932 36.8899 34.932H38.0419C38.0819 34.932 38.1139 34.948 38.1379 34.98C38.1699 35.004 38.1859 35.036 38.1859 35.076V36.144Z" fill="#C4C4C4"/>
<path d="M47.3645 34.836C47.8845 34.836 48.3485 34.928 48.7565 35.112C49.1645 35.288 49.4805 35.532 49.7045 35.844C49.9365 36.156 50.0525 36.504 50.0525 36.888V40.956C50.0525 40.996 50.0365 41.032 50.0045 41.064C49.9805 41.088 49.9485 41.1 49.9085 41.1H48.5045C48.4645 41.1 48.4285 41.088 48.3965 41.064C48.3725 41.032 48.3605 40.996 48.3605 40.956V40.56C48.3605 40.536 48.3525 40.52 48.3365 40.512C48.3205 40.504 48.3045 40.512 48.2885 40.536C47.9525 40.976 47.4125 41.196 46.6685 41.196C46.0445 41.196 45.5405 41.044 45.1565 40.74C44.7725 40.436 44.5805 39.988 44.5805 39.396C44.5805 38.78 44.7965 38.304 45.2285 37.968C45.6605 37.624 46.2765 37.452 47.0765 37.452H48.3005C48.3405 37.452 48.3605 37.432 48.3605 37.392V37.128C48.3605 36.864 48.2805 36.66 48.1205 36.516C47.9605 36.364 47.7205 36.288 47.4005 36.288C47.1525 36.288 46.9445 36.332 46.7765 36.42C46.6165 36.508 46.5125 36.632 46.4645 36.792C46.4405 36.88 46.3885 36.92 46.3085 36.912L44.8565 36.72C44.7605 36.704 44.7165 36.668 44.7245 36.612C44.7565 36.276 44.8885 35.972 45.1205 35.7C45.3605 35.428 45.6725 35.216 46.0565 35.064C46.4485 34.912 46.8845 34.836 47.3645 34.836ZM47.1245 39.936C47.4685 39.936 47.7605 39.844 48.0005 39.66C48.2405 39.476 48.3605 39.24 48.3605 38.952V38.52C48.3605 38.48 48.3405 38.46 48.3005 38.46H47.4365C47.0765 38.46 46.7925 38.528 46.5845 38.664C46.3845 38.8 46.2845 38.992 46.2845 39.24C46.2845 39.456 46.3605 39.628 46.5125 39.756C46.6645 39.876 46.8685 39.936 47.1245 39.936Z" fill="#C4C4C4"/>
<path d="M60.5443 35.076C60.5443 35.036 60.5563 35.004 60.5803 34.98C60.6123 34.948 60.6483 34.932 60.6883 34.932H62.0923C62.1323 34.932 62.1643 34.948 62.1883 34.98C62.2203 35.004 62.2363 35.036 62.2363 35.076V40.956C62.2363 40.996 62.2203 41.032 62.1883 41.064C62.1643 41.088 62.1323 41.1 62.0923 41.1H60.6883C60.6483 41.1 60.6123 41.088 60.5803 41.064C60.5563 41.032 60.5443 40.996 60.5443 40.956V40.548C60.5443 40.524 60.5363 40.512 60.5203 40.512C60.5043 40.504 60.4883 40.512 60.4723 40.536C60.1523 40.968 59.6563 41.184 58.9843 41.184C58.3763 41.184 57.8763 41 57.4843 40.632C57.0923 40.264 56.8963 39.748 56.8963 39.084V35.076C56.8963 35.036 56.9083 35.004 56.9323 34.98C56.9643 34.948 57.0003 34.932 57.0403 34.932H58.4323C58.4723 34.932 58.5043 34.948 58.5283 34.98C58.5603 35.004 58.5763 35.036 58.5763 35.076V38.664C58.5763 38.984 58.6603 39.244 58.8283 39.444C59.0043 39.644 59.2443 39.744 59.5483 39.744C59.8203 39.744 60.0443 39.664 60.2203 39.504C60.3963 39.336 60.5043 39.12 60.5443 38.856V35.076Z" fill="#C4C4C4"/>
<path d="M72.2554 34.848C72.5434 34.848 72.7714 34.904 72.9394 35.016C73.0034 35.048 73.0274 35.108 73.0114 35.196L72.7594 36.564C72.7514 36.66 72.6954 36.688 72.5914 36.648C72.4714 36.608 72.3314 36.588 72.1714 36.588C72.1074 36.588 72.0194 36.596 71.9074 36.612C71.6194 36.636 71.3754 36.744 71.1754 36.936C70.9754 37.12 70.8754 37.368 70.8754 37.68V40.956C70.8754 40.996 70.8594 41.032 70.8274 41.064C70.8034 41.088 70.7714 41.1 70.7314 41.1H69.3274C69.2874 41.1 69.2514 41.088 69.2194 41.064C69.1954 41.032 69.1834 40.996 69.1834 40.956V35.076C69.1834 35.036 69.1954 35.004 69.2194 34.98C69.2514 34.948 69.2874 34.932 69.3274 34.932H70.7314C70.7714 34.932 70.8034 34.948 70.8274 34.98C70.8594 35.004 70.8754 35.036 70.8754 35.076V35.532C70.8754 35.556 70.8834 35.572 70.8994 35.58C70.9154 35.588 70.9274 35.584 70.9354 35.568C71.2634 35.088 71.7034 34.848 72.2554 34.848Z" fill="#C4C4C4"/>
<path d="M81.8668 34.836C82.3868 34.836 82.8508 34.928 83.2588 35.112C83.6668 35.288 83.9828 35.532 84.2068 35.844C84.4388 36.156 84.5548 36.504 84.5548 36.888V40.956C84.5548 40.996 84.5388 41.032 84.5068 41.064C84.4828 41.088 84.4508 41.1 84.4108 41.1H83.0068C82.9668 41.1 82.9308 41.088 82.8988 41.064C82.8748 41.032 82.8628 40.996 82.8628 40.956V40.56C82.8628 40.536 82.8548 40.52 82.8388 40.512C82.8228 40.504 82.8068 40.512 82.7908 40.536C82.4548 40.976 81.9148 41.196 81.1708 41.196C80.5468 41.196 80.0428 41.044 79.6588 40.74C79.2748 40.436 79.0828 39.988 79.0828 39.396C79.0828 38.78 79.2988 38.304 79.7308 37.968C80.1628 37.624 80.7788 37.452 81.5788 37.452H82.8028C82.8428 37.452 82.8628 37.432 82.8628 37.392V37.128C82.8628 36.864 82.7828 36.66 82.6228 36.516C82.4628 36.364 82.2228 36.288 81.9028 36.288C81.6548 36.288 81.4468 36.332 81.2788 36.42C81.1188 36.508 81.0148 36.632 80.9668 36.792C80.9428 36.88 80.8908 36.92 80.8108 36.912L79.3588 36.72C79.2628 36.704 79.2188 36.668 79.2268 36.612C79.2588 36.276 79.3908 35.972 79.6228 35.7C79.8628 35.428 80.1748 35.216 80.5588 35.064C80.9508 34.912 81.3868 34.836 81.8668 34.836ZM81.6268 39.936C81.9708 39.936 82.2628 39.844 82.5028 39.66C82.7428 39.476 82.8628 39.24 82.8628 38.952V38.52C82.8628 38.48 82.8428 38.46 82.8028 38.46H81.9388C81.5788 38.46 81.2948 38.528 81.0868 38.664C80.8868 38.8 80.7868 38.992 80.7868 39.24C80.7868 39.456 80.8628 39.628 81.0148 39.756C81.1668 39.876 81.3708 39.936 81.6268 39.936Z" fill="#C4C4C4"/>
<path d="M94.6627 34.836C95.3027 34.836 95.8187 35.032 96.2107 35.424C96.6027 35.816 96.7987 36.348 96.7987 37.02V40.956C96.7987 40.996 96.7827 41.032 96.7507 41.064C96.7267 41.088 96.6947 41.1 96.6547 41.1H95.2507C95.2107 41.1 95.1747 41.088 95.1427 41.064C95.1187 41.032 95.1067 40.996 95.1067 40.956V37.368C95.1067 37.048 95.0147 36.788 94.8307 36.588C94.6547 36.388 94.4187 36.288 94.1227 36.288C93.8267 36.288 93.5867 36.388 93.4027 36.588C93.2267 36.788 93.1387 37.048 93.1387 37.368V40.956C93.1387 40.996 93.1227 41.032 93.0907 41.064C93.0667 41.088 93.0347 41.1 92.9947 41.1H91.5907C91.5507 41.1 91.5147 41.088 91.4827 41.064C91.4587 41.032 91.4467 40.996 91.4467 40.956V35.076C91.4467 35.036 91.4587 35.004 91.4827 34.98C91.5147 34.948 91.5507 34.932 91.5907 34.932H92.9947C93.0347 34.932 93.0667 34.948 93.0907 34.98C93.1227 35.004 93.1387 35.036 93.1387 35.076V35.496C93.1387 35.52 93.1467 35.536 93.1627 35.544C93.1787 35.552 93.1907 35.548 93.1987 35.532C93.5267 35.068 94.0147 34.836 94.6627 34.836Z" fill="#C4C4C4"/>
<path d="M107.249 36.144C107.249 36.184 107.233 36.22 107.201 36.252C107.177 36.276 107.145 36.288 107.105 36.288H105.953C105.913 36.288 105.893 36.308 105.893 36.348V38.892C105.893 39.156 105.945 39.352 106.049 39.48C106.161 39.608 106.337 39.672 106.577 39.672H106.973C107.013 39.672 107.045 39.688 107.069 39.72C107.101 39.744 107.117 39.776 107.117 39.816V40.956C107.117 41.044 107.069 41.096 106.973 41.112C106.637 41.128 106.397 41.136 106.253 41.136C105.589 41.136 105.093 41.028 104.765 40.812C104.437 40.588 104.269 40.172 104.261 39.564V36.348C104.261 36.308 104.241 36.288 104.201 36.288H103.517C103.477 36.288 103.441 36.276 103.409 36.252C103.385 36.22 103.373 36.184 103.373 36.144V35.076C103.373 35.036 103.385 35.004 103.409 34.98C103.441 34.948 103.477 34.932 103.517 34.932H104.201C104.241 34.932 104.261 34.912 104.261 34.872V33.444C104.261 33.404 104.273 33.372 104.297 33.348C104.329 33.316 104.365 33.3 104.405 33.3H105.749C105.789 33.3 105.821 33.316 105.845 33.348C105.877 33.372 105.893 33.404 105.893 33.444V34.872C105.893 34.912 105.913 34.932 105.953 34.932H107.105C107.145 34.932 107.177 34.948 107.201 34.98C107.233 35.004 107.249 35.036 107.249 35.076V36.144Z" fill="#C4C4C4"/>
<path d="M0 21H30V30H0V21Z" fill="#C4C4C4"/>
<path d="M0 11H30V19H0V11Z" fill="#C4C4C4"/>
<path d="M0 0H30V9H0V0Z" fill="#C4C4C4"/>
</svg>
