<svg width="55" height="92" viewBox="0 0 55 92" fill="none" xmlns="http://www.w3.org/2000/svg">
<path d="M29.9116 21.0521C29.7292 16.9518 29.4859 14.7487 27.0531 12.056C23.9512 8.56771 22.7956 5.20182 25.3501 0C26.0191 3.48828 26.2624 6.60938 28.6952 8.50651C31.1281 10.4036 33.1351 15.5443 29.9116 21.0521ZM25.3501 21.0521C25.2284 18.849 25.1068 17.7474 23.7687 16.2174C22.1266 14.3815 21.4575 12.6068 22.8564 9.79167C23.2213 11.6888 23.2822 13.3411 24.6202 14.3203C25.9583 15.2995 27.1139 18.1146 25.3501 21.0521ZM36.3587 40.3906H47.4281C48.0971 40.3906 48.3404 40.8802 47.9146 41.431C47.9146 41.431 43.5963 47 37.6359 47C37.6359 47 24.1965 47 16.2878 47C10.373 47 6.00903 41.431 6.00903 41.431C5.58328 40.8802 5.76574 40.3906 6.43477 40.3906H17.3825C15.862 39.5951 13.6116 36.1068 13.6116 31.7617V22.582H40.2512V23.3164C41.1027 22.582 42.1366 22.2148 43.2314 22.2148C44.7519 22.2148 47.6105 23.806 47.6105 26.5599C47.6105 30.5378 44.9952 32.0065 43.4747 33.0469C43.4747 33.0469 40.6161 35.3112 38.609 37.9427C37.94 39.1055 37.1493 40.0234 36.3587 40.3906ZM43.2314 23.8672C42.2583 23.8672 41.0419 24.2956 40.2512 26.2539V31.3333C40.2512 32.0065 40.1904 32.8021 40.0687 33.4753C41.4068 32.1289 42.9881 31.2109 42.9881 31.2109C43.9613 30.5378 45.9075 29.2526 45.9075 26.7435C45.9683 24.9688 44.3262 23.8672 43.2314 23.8672Z" fill="#BDBDBD"/>
<path d="M11.04 89.3C11.5467 89.5267 11.9867 89.7667 12.36 90.02L12.32 91H7.58V85.46C7.58 84.1133 7.15333 83.44 6.3 83.44C5.91333 83.44 5.49333 83.5533 5.04 83.78V89.4L6.12 90.02L6.08 91H0.12L0.08 90.3C0.573333 90.02 1.07333 89.7933 1.58 89.62V78.26L0.1 78L0 77C1.12 76.6 2.44 76.3533 3.96 76.26L5.04 77.26V82.74C6.10667 81.9267 7.1 81.38 8.02 81.1C9.27333 81.14 10.2 81.62 10.8 82.54C10.9467 82.8067 11.0267 83.4133 11.04 84.36V89.3Z" fill="#BDBDBD"/>
<path d="M12.5586 86.14C12.5586 84.6333 13.0319 83.4 13.9786 82.44C14.9253 81.48 16.1253 81 17.5786 81C19.0319 81 20.2253 81.4867 21.1586 82.46C22.0919 83.4333 22.5586 84.6933 22.5586 86.24C22.5586 87.7733 22.0986 89.02 21.1786 89.98C20.2719 90.9267 19.0986 91.4 17.6586 91.4C16.1919 91.4 14.9719 90.9067 13.9986 89.92C13.0386 88.92 12.5586 87.66 12.5586 86.14ZM18.3186 89.5C18.8119 89.1267 19.0586 88.1133 19.0586 86.46C19.0586 84.1 18.5186 82.92 17.4386 82.92C17.1053 82.92 16.8453 82.9933 16.6586 83.14C16.2586 83.6733 16.0586 84.6867 16.0586 86.18C16.0586 87.1933 16.1986 88.02 16.4786 88.66C16.7586 89.2867 17.1853 89.6 17.7586 89.6C17.9453 89.6 18.1319 89.5667 18.3186 89.5Z" fill="#BDBDBD"/>
<path d="M35.4855 89.86L32.8255 91.34C32.4388 91.3133 32.0455 91.1467 31.6455 90.84C31.2588 90.5333 30.9455 90.1333 30.7055 89.64C29.6388 90.4533 28.5655 91.02 27.4855 91.34C26.8055 91.34 26.1588 91.1267 25.5455 90.7C24.9455 90.2733 24.6055 89.74 24.5255 89.1L24.4655 87.96V83.02L22.9855 82.74L22.8855 81.78C24.0721 81.3267 25.3921 81.08 26.8455 81.04L27.9255 82V87.28C27.9255 88.3867 28.3455 88.94 29.1855 88.94C29.5988 88.94 29.9988 88.8533 30.3855 88.68V82.96L29.2655 82.68L29.1655 81.72C30.2321 81.2933 31.4321 81.0667 32.7655 81.04L33.8455 82V88.52C33.8455 88.8667 34.0121 89.04 34.3455 89.04L34.8655 89.02L35.3655 88.98L35.4855 89.86Z" fill="#BDBDBD"/>
<path d="M39.3413 83.38C39.3413 83.62 39.4279 83.84 39.6012 84.04C39.7746 84.2267 40.3946 84.6 41.4613 85.16C42.5279 85.7067 43.2479 86.22 43.6213 86.7C43.9946 87.1667 44.1813 87.7 44.1813 88.3C44.1813 89.2067 43.8079 89.9533 43.0612 90.54C42.3146 91.1133 41.3213 91.4 40.0812 91.4C38.6812 91.4 37.2879 91.04 35.9012 90.32L37.0412 87.7C38.2012 88.5933 39.4012 89.26 40.6413 89.7C40.8813 89.4867 41.0013 89.24 41.0013 88.96C41.0013 88.7067 40.9012 88.48 40.7012 88.28C40.5146 88.08 39.9013 87.72 38.8613 87.2C37.8346 86.6667 37.1346 86.1733 36.7612 85.72C36.4012 85.2533 36.2212 84.7267 36.2212 84.14C36.2212 83.2067 36.6279 82.4533 37.4412 81.88C38.2679 81.2933 39.3346 81 40.6413 81C41.8546 81 42.8879 81.22 43.7412 81.66L43.7812 82.36C43.7812 83.0533 43.6679 83.7533 43.4412 84.46H41.6813L41.0612 82.64L40.1413 82.54C39.6079 82.7 39.3413 82.98 39.3413 83.38Z" fill="#BDBDBD"/>
<path d="M53.2609 86.42L48.2209 86.38C48.3143 87.2467 48.6209 87.9133 49.1409 88.38C49.6743 88.8467 50.3409 89.08 51.1409 89.08C51.8476 89.08 52.6943 88.8267 53.6809 88.32L54.1809 89.46L51.0409 91.24L50.1209 91.3C48.6409 91.3 47.4076 90.8333 46.4209 89.9C45.4476 88.9667 44.9609 87.7733 44.9609 86.32C44.9609 84.84 45.4543 83.5867 46.4409 82.56C47.4409 81.52 48.6476 81 50.0609 81C51.3543 81 52.4076 81.3933 53.2209 82.18C54.0343 82.9533 54.4343 83.98 54.4209 85.26L53.2609 86.42ZM49.5209 82.66C48.8809 83.06 48.4743 83.7933 48.3009 84.86L51.3009 84.68C51.2209 84.1333 51.0143 83.6667 50.6809 83.28C50.3609 82.88 49.9743 82.6733 49.5209 82.66Z" fill="#BDBDBD"/>
<path d="M5.9 70.26L5.02 70.32C3.58 70.32 2.38 69.8467 1.42 68.9C0.473333 67.94 0 66.7133 0 65.22C0 63.7133 0.48 62.4667 1.44 61.48C2.4 60.4933 3.60667 60 5.06 60C5.99333 60 6.82667 60.2267 7.56 60.68C8.29333 61.12 8.78667 61.76 9.04 62.6L6.3 64.14C5.72667 63.0067 5.06 62.2333 4.3 61.82C3.66 62.5133 3.34 63.4733 3.34 64.7C3.34 65.7 3.58 66.5133 4.06 67.14C4.55333 67.7667 5.24667 68.08 6.14 68.08C6.76667 68.08 7.49333 67.88 8.32 67.48L8.8 68.58L5.9 70.26Z" fill="#BDBDBD"/>
<path d="M9.25781 65.14C9.25781 63.6333 9.73115 62.4 10.6778 61.44C11.6245 60.48 12.8245 60 14.2778 60C15.7311 60 16.9245 60.4867 17.8578 61.46C18.7911 62.4333 19.2578 63.6933 19.2578 65.24C19.2578 66.7733 18.7978 68.02 17.8778 68.98C16.9711 69.9267 15.7978 70.4 14.3578 70.4C12.8911 70.4 11.6711 69.9067 10.6978 68.92C9.73781 67.92 9.25781 66.66 9.25781 65.14ZM15.0178 68.5C15.5111 68.1267 15.7578 67.1133 15.7578 65.46C15.7578 63.1 15.2178 61.92 14.1378 61.92C13.8045 61.92 13.5445 61.9933 13.3578 62.14C12.9578 62.6733 12.7578 63.6867 12.7578 65.18C12.7578 66.1933 12.8978 67.02 13.1778 67.66C13.4578 68.2867 13.8845 68.6 14.4578 68.6C14.6445 68.6 14.8311 68.5667 15.0178 68.5Z" fill="#BDBDBD"/>
<path d="M24.7047 62.8V68.24C25.3714 68.4267 25.978 68.6867 26.5247 69.02L26.4847 70H19.9447L19.9047 69.3C20.278 69.0733 20.718 68.8733 21.2247 68.7V62.78L19.7447 62.8L19.7047 61.7L21.2247 60.82V59.34C21.2247 58.1 21.618 57.0667 22.4047 56.24C23.1914 55.4 24.158 54.98 25.3047 54.98C26.3447 54.98 27.338 55.3067 28.2847 55.96L26.4847 58.98C25.6314 58.14 24.6247 57.54 23.4647 57.18L24.6847 60.54H26.9247L26.9647 61.52L25.9447 62.8H24.7047ZM32.4047 62.8V68.24C33.0714 68.4267 33.678 68.6867 34.2247 69.02L34.1847 70H27.6447L27.6047 69.3C27.978 69.0733 28.418 68.8733 28.9247 68.7V62.78L27.4447 62.8L27.4047 61.7L28.9247 60.82V59.34C28.9247 58.1 29.318 57.0667 30.1047 56.24C30.8914 55.4 31.858 54.98 33.0047 54.98C34.0447 54.98 35.038 55.3067 35.9847 55.96L34.1847 58.98C33.3314 58.14 32.3247 57.54 31.1647 57.18L32.3847 60.54H34.6247L34.6647 61.52L33.6447 62.8H32.4047Z" fill="#BDBDBD"/>
<path d="M43.0266 65.42L37.9866 65.38C38.0799 66.2467 38.3866 66.9133 38.9066 67.38C39.4399 67.8467 40.1066 68.08 40.9066 68.08C41.6132 68.08 42.4599 67.8267 43.4466 67.32L43.9466 68.46L40.8066 70.24L39.8866 70.3C38.4066 70.3 37.1732 69.8333 36.1866 68.9C35.2132 67.9667 34.7266 66.7733 34.7266 65.32C34.7266 63.84 35.2199 62.5867 36.2066 61.56C37.2066 60.52 38.4132 60 39.8266 60C41.1199 60 42.1732 60.3933 42.9866 61.18C43.7999 61.9533 44.1999 62.98 44.1866 64.26L43.0266 65.42ZM39.2866 61.66C38.6466 62.06 38.2399 62.7933 38.0666 63.86L41.0666 63.68C40.9866 63.1333 40.7799 62.6667 40.4466 62.28C40.1266 61.88 39.7399 61.6733 39.2866 61.66Z" fill="#BDBDBD"/>
<path d="M53.0266 65.42L47.9866 65.38C48.0799 66.2467 48.3866 66.9133 48.9066 67.38C49.4399 67.8467 50.1066 68.08 50.9066 68.08C51.6132 68.08 52.4599 67.8267 53.4466 67.32L53.9466 68.46L50.8066 70.24L49.8866 70.3C48.4066 70.3 47.1732 69.8333 46.1866 68.9C45.2132 67.9667 44.7266 66.7733 44.7266 65.32C44.7266 63.84 45.2199 62.5867 46.2066 61.56C47.2066 60.52 48.4132 60 49.8266 60C51.1199 60 52.1732 60.3933 52.9866 61.18C53.7999 61.9533 54.1999 62.98 54.1866 64.26L53.0266 65.42ZM49.2866 61.66C48.6466 62.06 48.2399 62.7933 48.0666 63.86L51.0666 63.68C50.9866 63.1333 50.7799 62.6667 50.4466 62.28C50.1266 61.88 49.7399 61.6733 49.2866 61.66Z" fill="#BDBDBD"/>
</svg>
