<svg width="98" height="65" viewBox="0 0 98 65" fill="none" xmlns="http://www.w3.org/2000/svg">
<path d="M13.2422 33.8044C13.2422 33.3122 13.1641 32.8825 13.0078 32.5153C12.8594 32.1403 12.6328 31.8317 12.3281 31.5895C12.0312 31.3473 11.7031 31.1481 11.3438 30.9919C10.9844 30.8278 10.5508 30.7067 10.043 30.6286C9.12891 30.488 8.10547 30.4176 6.97266 30.4176H4.32422V34.9528C4.32422 35.7262 4.45312 36.2653 4.71094 36.57C4.97656 36.8747 5.46484 37.027 6.17578 37.027H8.12109C10.1445 37.027 11.543 36.7028 12.3164 36.0544C12.9336 35.5387 13.2422 34.7887 13.2422 33.8044ZM0.046875 23.1755C0.0390625 23.1364 0.0273438 23.0934 0.0117188 23.0465C0.00390625 22.9919 0 22.8903 0 22.7419C0 22.5934 0.0585938 22.4489 0.175781 22.3083C0.300781 22.1598 0.515625 22.0583 0.820312 22.0036C1.21094 21.9333 1.94531 21.8981 3.02344 21.8981H7.55859C12.2773 21.8981 14.6367 23.2575 14.6367 25.9762C14.6367 26.945 14.3164 27.7106 13.6758 28.2731C13.1523 28.7419 12.4609 29.1598 11.6016 29.527C14.4219 30.4176 15.832 31.8786 15.832 33.9098C15.832 34.7458 15.625 35.4645 15.2109 36.0661C14.8047 36.6598 14.2344 37.1169 13.5 37.4372C12.125 38.0544 10.375 38.363 8.25 38.363L3.02344 38.3512C1.94531 38.3512 1.25781 38.3239 0.960938 38.2692C0.34375 38.1051 0.0234375 37.7809 0 37.2966C0 37.0231 0.265625 36.8512 0.796875 36.7809C1.04688 36.7419 1.21484 36.7028 1.30078 36.6637C1.60547 36.5387 1.75781 36.2614 1.75781 35.8317V24.4059C1.75781 23.8434 1.46484 23.5231 0.878906 23.445C0.769531 23.4294 0.667969 23.4176 0.574219 23.4098C0.480469 23.3942 0.402344 23.3825 0.339844 23.3747C0.277344 23.359 0.234375 23.3434 0.210938 23.3278C0.1875 23.3122 0.15625 23.2926 0.117188 23.2692C0.0859375 23.238 0.0625 23.2067 0.046875 23.1755ZM8.22656 29.0583C10.1172 29.0583 11.3555 28.5856 11.9414 27.6403C12.1602 27.2809 12.2695 26.8669 12.2695 26.3981C12.2695 25.9215 12.1914 25.5114 12.0352 25.1676C11.8789 24.8161 11.6484 24.5309 11.3438 24.3122C11.0391 24.0934 10.7109 23.9137 10.3594 23.7731C10.0156 23.6325 9.59766 23.5309 9.10547 23.4684C8.26953 23.3512 7.42188 23.2926 6.5625 23.2926C5.70312 23.2926 5.11328 23.4137 4.79297 23.6559C4.48047 23.8903 4.32422 24.3317 4.32422 24.9801V29.0583H8.22656Z" fill="#BDBDBD"/>
<path d="M18.9023 30.9215C18.6133 30.9215 18.2852 30.8083 17.918 30.5817C17.5586 30.3473 17.3789 30.0465 17.3789 29.6794C17.3789 29.3044 17.4844 28.9528 17.6953 28.6247C17.9062 28.2965 18.1797 28.0309 18.5156 27.8278C18.8516 27.6169 19.2422 27.4411 19.6875 27.3005C20.5 27.0426 21.375 26.9137 22.3125 26.9137C23.8906 26.9137 25.0352 27.2653 25.7461 27.9684C26.4648 28.6637 26.8242 29.8161 26.8242 31.4255L26.8125 34.8825C26.8125 35.7184 26.918 36.2419 27.1289 36.4528C27.1836 36.5075 27.3555 36.5778 27.6445 36.6637C28.4414 36.9137 28.8398 37.1051 28.8398 37.238C28.8398 38.0583 28 38.4684 26.3203 38.4684C25.6875 38.4684 25.2734 38.3278 25.0781 38.0466C24.8906 37.7653 24.7891 37.2536 24.7734 36.5114C24.4219 37.1442 23.8867 37.6559 23.168 38.0466C22.4492 38.4372 21.6797 38.6325 20.8594 38.6325C20.0391 38.6325 19.3438 38.527 18.7734 38.3161C18.2031 38.1051 17.7383 37.7653 17.3789 37.2966C17.0273 36.82 16.8516 36.3083 16.8516 35.7614C16.8516 35.2145 16.9141 34.777 17.0391 34.4489C17.1641 34.113 17.3203 33.8317 17.5078 33.6051C17.6953 33.3786 17.9492 33.1755 18.2695 32.9958C18.5977 32.8161 18.9023 32.6755 19.1836 32.5739C19.4648 32.4645 19.8281 32.3669 20.2734 32.2809C20.9297 32.1559 21.4805 32.07 21.9258 32.0231C22.3711 31.9684 22.6016 31.9372 22.6172 31.9294C22.6641 31.9215 22.9297 31.8942 23.4141 31.8473C23.9062 31.7926 24.293 31.6872 24.5742 31.5309C24.5742 30.0465 24.375 29.0778 23.9766 28.6247C23.625 28.234 23.0469 28.0387 22.2422 28.0387C21.4375 28.0387 20.832 28.2458 20.4258 28.6598C20.0273 29.0661 19.8281 29.7145 19.8281 30.6051L19.8398 30.863C19.5117 30.902 19.1992 30.9215 18.9023 30.9215ZM24.5742 32.5856C24.043 32.7809 23.4414 32.9176 22.7695 32.9958C22.1055 33.0661 21.582 33.152 21.1992 33.2536C20.8164 33.3551 20.4961 33.4801 20.2383 33.6286C19.6445 33.9723 19.3477 34.5622 19.3477 35.3981C19.3477 36.7419 20.1289 37.4137 21.6914 37.4137C23.043 37.4137 23.8984 36.7692 24.2578 35.4801C24.4688 34.7458 24.5742 33.7809 24.5742 32.5856Z" fill="#BDBDBD"/>
<path d="M40.8984 31.0622C40.8984 31.7731 40.6289 32.3981 40.0898 32.9372C39.0352 33.9919 37.5312 34.5192 35.5781 34.5192C35.1953 34.5192 34.7891 34.4841 34.3594 34.4137C33.9297 34.3356 33.6602 34.2887 33.5508 34.2731V34.2614C32.957 34.7614 32.6602 35.1989 32.6602 35.5739C32.6602 35.9176 32.8281 36.1481 33.1641 36.2653C33.6406 36.4372 34.3047 36.5309 35.1562 36.5466C36.0078 36.5622 36.6719 36.5778 37.1484 36.5934C37.625 36.6012 38.1406 36.6247 38.6953 36.6637C39.25 36.7028 39.7383 36.7809 40.1602 36.8981C40.582 37.0075 40.9766 37.1559 41.3438 37.3434C42.0938 37.7341 42.4688 38.3981 42.4688 39.3356C42.4688 40.0387 42.2852 40.6598 41.918 41.1989C41.5508 41.738 41.0586 42.1637 40.4414 42.4762C39.2148 43.1091 37.7539 43.4255 36.0586 43.4255C34.5898 43.4255 33.2969 43.2223 32.1797 42.8161C31.5781 42.5973 31.1016 42.2731 30.75 41.8434C30.3984 41.4216 30.2227 40.9137 30.2227 40.32C30.2227 39.2106 30.7812 38.3551 31.8984 37.7536C31.6016 37.4645 31.3984 37.1911 31.2891 36.9333C31.1875 36.6755 31.1367 36.3747 31.1367 36.0309C31.1367 35.6872 31.168 35.4216 31.2305 35.2341C31.293 35.0466 31.3906 34.8747 31.5234 34.7184C31.6953 34.5153 32.0156 34.238 32.4844 33.8864C31.75 33.5192 31.1875 33.1091 30.7969 32.6559C30.4141 32.195 30.2227 31.6169 30.2227 30.9215C30.2227 30.2184 30.3828 29.609 30.7031 29.0934C31.0312 28.5778 31.4609 28.1676 31.9922 27.863C33.0703 27.2458 34.2734 26.9372 35.6016 26.9372C35.9766 26.9372 36.6758 27.0348 37.6992 27.2301C38.7305 27.4176 39.3086 27.5114 39.4336 27.5114C40.1289 27.5114 40.5352 27.1637 40.6523 26.4684C41.6523 26.4684 42.1523 26.8669 42.1523 27.6637C42.1523 28.0465 42.0352 28.3512 41.8008 28.5778C41.5742 28.7965 41.3086 28.9059 41.0039 28.9059C40.707 28.9059 40.3867 28.8903 40.043 28.859C40.2695 29.0544 40.4688 29.359 40.6406 29.7731C40.8125 30.1872 40.8984 30.6169 40.8984 31.0622ZM35.6484 27.945C34.8047 27.945 34.0859 28.1911 33.4922 28.6833C32.9062 29.1755 32.6133 29.8239 32.6133 30.6286C32.6133 31.4333 32.9141 32.0934 33.5156 32.6091C34.125 33.1247 34.8672 33.3825 35.7422 33.3825C36.6172 33.3825 37.3242 33.1442 37.8633 32.6676C38.4102 32.1833 38.6836 31.5544 38.6836 30.7809C38.6836 30.0075 38.3867 29.3434 37.793 28.7887C37.207 28.2262 36.4922 27.945 35.6484 27.945ZM35.8477 42.0544C37.0508 42.0544 37.9648 41.9255 38.5898 41.6676C39.2148 41.4176 39.6484 41.1247 39.8906 40.7887C40.1328 40.4606 40.2539 40.0661 40.2539 39.6051C40.2539 38.6442 38.3867 38.1637 34.6523 38.1637C33.5977 38.1637 33.0703 38.152 33.0703 38.1286C32.4766 38.7301 32.1797 39.3044 32.1797 39.8512C32.1797 41.32 33.4023 42.0544 35.8477 42.0544Z" fill="#BDBDBD"/>
<path d="M46.7109 33.277C46.7109 34.3473 46.7969 35.1051 46.9688 35.5505C47.1406 35.988 47.3359 36.3005 47.5547 36.488C48.0078 36.8786 48.7617 37.0739 49.8164 37.0739C50.8789 37.0739 51.6562 36.8044 52.1484 36.2653C52.6406 35.7184 52.8867 34.8083 52.8867 33.5348V29.5739C52.8867 28.9958 52.6016 28.6872 52.0312 28.6481C51.5781 28.6247 51.3281 28.5778 51.2812 28.5075C51.2344 28.4294 51.2109 28.3434 51.2109 28.2497C51.2109 27.859 51.4375 27.5622 51.8906 27.359C52.3516 27.1559 52.8945 27.0544 53.5195 27.0544C54.1523 27.0544 54.5781 27.1403 54.7969 27.3122C55.0234 27.484 55.1367 27.8903 55.1367 28.5309L55.1484 36.0309C55.1484 36.5622 55.4297 36.8473 55.9922 36.8864C56.3906 36.9098 56.6328 36.9528 56.7188 37.0153C56.8047 37.07 56.8477 37.2067 56.8477 37.4255C56.8477 37.6364 56.7188 37.8317 56.4609 38.0114C56 38.3239 55.3984 38.4801 54.6562 38.4801C53.9219 38.4801 53.4648 38.3708 53.2852 38.152C53.1133 37.9255 53.0273 37.4098 53.0273 36.6051C52.082 37.9801 50.6367 38.6676 48.6914 38.6676C47.1523 38.6676 46.0586 38.2536 45.4102 37.4255C44.7695 36.5973 44.4492 35.32 44.4492 33.5934V29.5739C44.4492 28.9958 44.1719 28.6872 43.6172 28.6481C43.1562 28.6247 42.9023 28.5778 42.8555 28.5075C42.8086 28.4294 42.7852 28.3434 42.7852 28.2497C42.7852 27.859 43.0117 27.5622 43.4648 27.359C43.918 27.1559 44.457 27.0544 45.082 27.0544C45.7148 27.0544 46.1445 27.1403 46.3711 27.3122C46.5977 27.484 46.7109 27.8903 46.7109 28.5309V33.277Z" fill="#BDBDBD"/>
<path d="M59.5547 37.0739C58.4766 36.0114 57.9375 34.6012 57.9375 32.8434C57.9375 31.0856 58.4805 29.6598 59.5664 28.5661C60.6602 27.4645 62.0508 26.9137 63.7383 26.9137C65.0742 26.9137 66.1992 27.3473 67.1133 28.2145C68.0352 29.0739 68.4961 30.1559 68.4961 31.4606C68.4961 32.0934 67.9961 32.4098 66.9961 32.4098H60.2109C60.2266 33.6755 60.6367 34.7419 61.4414 35.6091C62.2461 36.4762 63.2617 36.9098 64.4883 36.9098C65.3008 36.9098 66.0898 36.6716 66.8555 36.195C67.2617 35.945 67.5195 35.82 67.6289 35.82C67.7461 35.82 67.875 35.8786 68.0156 35.9958C68.1641 36.1051 68.2383 36.2419 68.2383 36.4059C68.2383 36.8356 67.9609 37.2341 67.4062 37.6012C66.8594 37.9606 66.2539 38.2262 65.5898 38.3981C64.9258 38.5778 64.3438 38.6676 63.8438 38.6676C62.0703 38.6676 60.6406 38.1364 59.5547 37.0739ZM66.3398 31.1794C66.3242 30.2809 66.0898 29.5505 65.6367 28.988C65.1836 28.4255 64.5195 28.1442 63.6445 28.1442C62.7773 28.1442 62.0156 28.4567 61.3594 29.0817C60.7109 29.7067 60.3672 30.4215 60.3281 31.2262H63.0703C64.2891 31.2262 65.3789 31.2106 66.3398 31.1794Z" fill="#BDBDBD"/>
<path d="M70.8516 28.6481L70.1367 28.6598C69.8477 28.6598 69.6367 28.6325 69.5039 28.5778C69.3711 28.5231 69.3047 28.4098 69.3047 28.238C69.3047 28.0583 69.3789 27.8981 69.5273 27.7575C69.6836 27.609 69.8594 27.4958 70.0547 27.4176C70.5938 27.1989 70.9141 27.0153 71.0156 26.8669C71.125 26.7106 71.2852 26.3747 71.4961 25.859C72.0195 24.57 72.457 23.9255 72.8086 23.9255C72.9883 23.9255 73.0898 24.1208 73.1133 24.5114C73.1445 24.8942 73.1602 25.1872 73.1602 25.3903C73.168 25.5934 73.168 25.8981 73.1602 26.3044C73.1523 26.7028 73.1484 26.9801 73.1484 27.1364L75.9375 27.1481C76.2109 27.1481 76.4414 27.2184 76.6289 27.359C76.8164 27.4919 76.9102 27.6715 76.9102 27.8981C76.9102 28.1247 76.8164 28.3005 76.6289 28.4255C76.4492 28.5505 76.2227 28.613 75.9492 28.613H73.1484L73.1367 34.6012C73.1367 36.2966 73.5625 37.1442 74.4141 37.1442C74.6484 37.1442 74.9961 37.0739 75.457 36.9333C75.918 36.7848 76.2188 36.7106 76.3594 36.7106C76.6797 36.7106 76.8398 36.8942 76.8398 37.2614C76.8398 37.5505 76.4609 37.8395 75.7031 38.1286C74.9531 38.4176 74.1797 38.5622 73.3828 38.5622C72.5938 38.5622 71.9727 38.2536 71.5195 37.6364C71.0742 37.0192 70.8516 36.2067 70.8516 35.1989V28.6481Z" fill="#BDBDBD"/>
<path d="M79.5234 28.6481L78.8086 28.6598C78.5195 28.6598 78.3086 28.6325 78.1758 28.5778C78.043 28.5231 77.9766 28.4098 77.9766 28.238C77.9766 28.0583 78.0508 27.8981 78.1992 27.7575C78.3555 27.609 78.5312 27.4958 78.7266 27.4176C79.2656 27.1989 79.5859 27.0153 79.6875 26.8669C79.7969 26.7106 79.957 26.3747 80.168 25.859C80.6914 24.57 81.1289 23.9255 81.4805 23.9255C81.6602 23.9255 81.7617 24.1208 81.7852 24.5114C81.8164 24.8942 81.832 25.1872 81.832 25.3903C81.8398 25.5934 81.8398 25.8981 81.832 26.3044C81.8242 26.7028 81.8203 26.9801 81.8203 27.1364L84.6094 27.1481C84.8828 27.1481 85.1133 27.2184 85.3008 27.359C85.4883 27.4919 85.582 27.6715 85.582 27.8981C85.582 28.1247 85.4883 28.3005 85.3008 28.4255C85.1211 28.5505 84.8945 28.613 84.6211 28.613H81.8203L81.8086 34.6012C81.8086 36.2966 82.2344 37.1442 83.0859 37.1442C83.3203 37.1442 83.668 37.0739 84.1289 36.9333C84.5898 36.7848 84.8906 36.7106 85.0312 36.7106C85.3516 36.7106 85.5117 36.8942 85.5117 37.2614C85.5117 37.5505 85.1328 37.8395 84.375 38.1286C83.625 38.4176 82.8516 38.5622 82.0547 38.5622C81.2656 38.5622 80.6445 38.2536 80.1914 37.6364C79.7461 37.0192 79.5234 36.2067 79.5234 35.1989V28.6481Z" fill="#BDBDBD"/>
<path d="M88.5703 37.0739C87.4922 36.0114 86.9531 34.6012 86.9531 32.8434C86.9531 31.0856 87.4961 29.6598 88.582 28.5661C89.6758 27.4645 91.0664 26.9137 92.7539 26.9137C94.0898 26.9137 95.2148 27.3473 96.1289 28.2145C97.0508 29.0739 97.5117 30.1559 97.5117 31.4606C97.5117 32.0934 97.0117 32.4098 96.0117 32.4098H89.2266C89.2422 33.6755 89.6523 34.7419 90.457 35.6091C91.2617 36.4762 92.2773 36.9098 93.5039 36.9098C94.3164 36.9098 95.1055 36.6716 95.8711 36.195C96.2773 35.945 96.5352 35.82 96.6445 35.82C96.7617 35.82 96.8906 35.8786 97.0312 35.9958C97.1797 36.1051 97.2539 36.2419 97.2539 36.4059C97.2539 36.8356 96.9766 37.2341 96.4219 37.6012C95.875 37.9606 95.2695 38.2262 94.6055 38.3981C93.9414 38.5778 93.3594 38.6676 92.8594 38.6676C91.0859 38.6676 89.6562 38.1364 88.5703 37.0739ZM95.3555 31.1794C95.3398 30.2809 95.1055 29.5505 94.6523 28.988C94.1992 28.4255 93.5352 28.1442 92.6602 28.1442C91.793 28.1442 91.0312 28.4567 90.375 29.0817C89.7266 29.7067 89.3828 30.4215 89.3438 31.2262H92.0859C93.3047 31.2262 94.3945 31.2106 95.3555 31.1794Z" fill="#BDBDBD"/>
<path d="M8.57324 52.943C8.57324 52.779 8.42383 52.6296 8.125 52.4948C7.83203 52.36 7.38086 52.2926 6.77148 52.2926C6.34961 52.2926 6.01562 52.3219 5.76953 52.3805C5.52344 52.4391 5.33594 52.5182 5.20703 52.6178C5.08398 52.7116 5.00488 52.82 4.96973 52.943C4.93457 53.0602 4.91699 53.1803 4.91699 53.3034C4.91699 53.5553 5.03418 53.778 5.26855 53.9714C5.50879 54.1589 5.82227 54.3376 6.20898 54.5075C6.60156 54.6774 7.04688 54.8473 7.54492 55.0173C8.04297 55.1872 8.55273 55.3776 9.07422 55.5885C9.5957 55.7936 10.1055 56.0309 10.6035 56.3005C11.1016 56.57 11.5439 56.8864 11.9307 57.2497C12.3232 57.613 12.6367 58.0378 12.8711 58.5241C13.1113 59.0104 13.2314 59.5729 13.2314 60.2116C13.2314 61.0319 13.0732 61.7204 12.7568 62.277C12.4404 62.8337 11.998 63.2819 11.4297 63.6217C10.8672 63.9616 10.1963 64.2048 9.41699 64.3512C8.64355 64.4977 7.79688 64.571 6.87695 64.571C6.33789 64.571 5.80176 64.5299 5.26855 64.4479C4.73535 64.3659 4.22852 64.2487 3.74805 64.0964C3.26758 63.9381 2.81934 63.7477 2.40332 63.5251C1.99316 63.2966 1.63574 63.0417 1.33105 62.7604C1.03223 62.4733 0.794922 62.1598 0.619141 61.82C0.449219 61.4743 0.364258 61.1051 0.364258 60.7126C0.364258 60.4137 0.411133 60.153 0.504883 59.9303C0.598633 59.7077 0.72168 59.526 0.874023 59.3854C1.03223 59.2389 1.21094 59.1305 1.41016 59.0602C1.60938 58.9899 1.81738 58.9548 2.03418 58.9548C2.29785 58.9548 2.56152 59.0046 2.8252 59.1042C3.08887 59.2038 3.32617 59.3503 3.53711 59.5436C3.74805 59.737 3.91797 59.9743 4.04688 60.2555C4.18164 60.5368 4.24902 60.8591 4.24902 61.2223C4.24902 61.3102 4.29004 61.404 4.37207 61.5036C4.45996 61.6032 4.58301 61.6969 4.74121 61.7848C4.90527 61.8669 5.10742 61.9372 5.34766 61.9958C5.58789 62.0544 5.86328 62.0837 6.17383 62.0837C6.60742 62.0837 6.95312 62.0573 7.21094 62.0046C7.46875 61.946 7.66504 61.8698 7.7998 61.776C7.94043 61.6823 8.03125 61.5768 8.07227 61.4596C8.11328 61.3424 8.13379 61.2253 8.13379 61.1081C8.13379 60.9616 8.02539 60.8327 7.80859 60.7214C7.5918 60.61 7.30762 60.4987 6.95605 60.3874C6.60449 60.2702 6.2002 60.1471 5.74316 60.0182C5.29199 59.8893 4.83203 59.737 4.36328 59.5612C3.89453 59.3796 3.43164 59.1657 2.97461 58.9196C2.52344 58.6735 2.12207 58.3776 1.77051 58.0319C1.41895 57.6803 1.13477 57.2731 0.917969 56.8102C0.701172 56.3415 0.592773 55.7966 0.592773 55.1755C0.592773 54.5602 0.666016 54.0094 0.8125 53.5231C0.964844 53.0368 1.17578 52.6061 1.44531 52.2311C1.7207 51.8561 2.04883 51.5368 2.42969 51.2731C2.81055 51.0036 3.23242 50.7839 3.69531 50.6139C4.16406 50.4382 4.66504 50.3122 5.19824 50.236C5.7373 50.154 6.29688 50.113 6.87695 50.113C7.91406 50.113 8.7959 50.2184 9.52246 50.4294C10.2549 50.6344 10.8496 50.901 11.3066 51.2292C11.7637 51.5573 12.0947 51.9235 12.2998 52.3278C12.5107 52.7262 12.6162 53.1159 12.6162 53.4967C12.6162 53.8424 12.543 54.1413 12.3965 54.3932C12.25 54.6452 12.0596 54.8532 11.8252 55.0173C11.5908 55.1813 11.3242 55.3014 11.0254 55.3776C10.7266 55.4538 10.4248 55.4919 10.1201 55.4919C9.82715 55.4919 9.54004 55.4596 9.25879 55.3952C8.9834 55.3307 8.7373 55.2341 8.52051 55.1051C8.30957 54.9762 8.13672 54.821 8.00195 54.6393C7.87305 54.4518 7.80859 54.238 7.80859 53.9977C7.80859 53.8219 7.84668 53.6901 7.92285 53.6022C8.00488 53.5143 8.09277 53.4411 8.18652 53.3825C8.28613 53.3239 8.37402 53.2653 8.4502 53.2067C8.53223 53.1481 8.57324 53.0602 8.57324 52.943Z" fill="#BDBDBD"/>
<path d="M35.8882 57.944H31.9244V60.6247C31.9244 60.8883 31.9595 61.0934 32.0298 61.2399C32.106 61.3864 32.1968 61.4977 32.3023 61.5739C32.4078 61.6501 32.522 61.7028 32.6451 61.7321C32.7681 61.7614 32.8795 61.7936 32.9791 61.8288C33.0845 61.8639 33.1724 61.9137 33.2427 61.9782C33.313 62.0368 33.3482 62.1364 33.3482 62.277C33.3482 63.0094 32.9703 63.5397 32.2144 63.8678C31.4586 64.1901 30.3658 64.3512 28.9361 64.3512C28.2447 64.3512 27.6295 64.3131 27.0904 64.237C26.5572 64.1549 26.106 64.0319 25.7369 63.8678C25.3736 63.6979 25.0953 63.4811 24.9019 63.2174C24.7144 62.9538 24.6207 62.6403 24.6207 62.277C24.6207 62.1364 24.6558 62.0368 24.7261 61.9782C24.7964 61.9137 24.8814 61.8669 24.981 61.8376C25.0865 61.8024 25.1978 61.7702 25.315 61.7409C25.438 61.7116 25.5494 61.6618 25.649 61.5915C25.7545 61.5153 25.8423 61.4069 25.9127 61.2663C25.983 61.1257 26.0181 60.9235 26.0181 60.6598V54.0329C26.0181 53.7751 25.983 53.5758 25.9127 53.4352C25.8423 53.2887 25.7545 53.1803 25.649 53.11C25.5494 53.0339 25.438 52.9811 25.315 52.9518C25.1978 52.9225 25.0865 52.8932 24.981 52.8639C24.8814 52.8288 24.7964 52.7819 24.7261 52.7233C24.6558 52.6589 24.6207 52.5563 24.6207 52.4157C24.6207 52.0524 24.7144 51.7419 24.9019 51.4841C25.0953 51.2204 25.3736 51.0065 25.7369 50.8424C26.106 50.6725 26.5572 50.5495 27.0904 50.4733C27.6295 50.3913 28.2447 50.3503 28.9361 50.3503C29.6509 50.3503 30.2837 50.3913 30.8345 50.4733C31.3853 50.5495 31.8453 50.6725 32.2144 50.8424C32.5894 51.0065 32.8707 51.2204 33.0582 51.4841C33.2515 51.7419 33.3482 52.0524 33.3482 52.4157C33.3482 52.5563 33.313 52.6589 33.2427 52.7233C33.1724 52.7819 33.0845 52.8288 32.9791 52.8639C32.8795 52.8932 32.7681 52.9225 32.6451 52.9518C32.522 52.9811 32.4078 53.0339 32.3023 53.11C32.2027 53.1803 32.1177 53.2887 32.0474 53.4352C31.9771 53.5758 31.942 53.7751 31.942 54.0329V56.2477H35.8882V54.0329C35.8882 53.7751 35.8531 53.5758 35.7828 53.4352C35.7125 53.2887 35.6246 53.1803 35.5191 53.11C35.4195 53.0339 35.3082 52.9811 35.1851 52.9518C35.0621 52.9225 34.9478 52.8932 34.8423 52.8639C34.7427 52.8288 34.6578 52.7819 34.5875 52.7233C34.5171 52.6589 34.482 52.5563 34.482 52.4157C34.482 51.6891 34.857 51.1647 35.607 50.8424C36.3629 50.5143 37.4586 50.3503 38.8941 50.3503C40.3062 50.3503 41.3873 50.5143 42.1373 50.8424C42.8873 51.1647 43.2623 51.6891 43.2623 52.4157C43.2623 52.5563 43.2242 52.6589 43.148 52.7233C43.0777 52.7819 42.9869 52.8288 42.8755 52.8639C42.7701 52.8932 42.6529 52.9225 42.524 52.9518C42.3951 52.9811 42.275 53.0339 42.1636 53.11C42.0582 53.1803 41.9673 53.2887 41.8912 53.4352C41.8209 53.5758 41.7857 53.7751 41.7857 54.0329V60.6247C41.7857 60.8883 41.8209 61.0934 41.8912 61.2399C41.9673 61.3864 42.0582 61.4977 42.1636 61.5739C42.275 61.6501 42.3951 61.7028 42.524 61.7321C42.6529 61.7614 42.7701 61.7936 42.8755 61.8288C42.9869 61.8639 43.0777 61.9137 43.148 61.9782C43.2242 62.0368 43.2623 62.1364 43.2623 62.277C43.2623 62.6403 43.1656 62.9538 42.9722 63.2174C42.7847 63.4811 42.5064 63.6979 42.1373 63.8678C41.7681 64.0319 41.3111 64.1549 40.7662 64.237C40.2212 64.3131 39.5972 64.3512 38.8941 64.3512C38.1793 64.3512 37.5464 64.3131 36.9957 64.237C36.4449 64.1549 35.982 64.0319 35.607 63.8678C35.2379 63.6979 34.9566 63.4811 34.7632 63.2174C34.5757 62.9538 34.482 62.6403 34.482 62.277C34.482 62.1364 34.5171 62.0368 34.5875 61.9782C34.6578 61.9137 34.7427 61.8639 34.8423 61.8288C34.9478 61.7936 35.0621 61.7614 35.1851 61.7321C35.3082 61.7028 35.4195 61.6501 35.5191 61.5739C35.6246 61.4977 35.7125 61.3893 35.7828 61.2487C35.8531 61.1022 35.8882 60.8942 35.8882 60.6247V57.944Z" fill="#BDBDBD"/>
<path d="M61.8497 64.571C60.965 64.571 60.1652 64.486 59.4503 64.3161C58.7355 64.1403 58.1027 63.8971 57.5519 63.5866C57.0011 63.276 56.5265 62.9069 56.128 62.4792C55.7296 62.0514 55.4015 61.5827 55.1437 61.0729C54.8859 60.5632 54.6954 60.0241 54.5724 59.4557C54.4552 58.8815 54.3966 58.2926 54.3966 57.6891C54.3966 56.9977 54.4347 56.3327 54.5109 55.694C54.5929 55.0495 54.7394 54.446 54.9503 53.8835C55.1671 53.321 55.4659 52.8083 55.8468 52.3454C56.2277 51.8825 56.7198 51.487 57.3234 51.1589C57.9327 50.8249 58.6681 50.5671 59.5294 50.3854C60.3907 50.2038 61.4103 50.113 62.588 50.113C63.5372 50.113 64.381 50.2008 65.1193 50.3766C65.8575 50.5466 66.5021 50.7868 67.0528 51.0973C67.6095 51.4079 68.0753 51.777 68.4503 52.2048C68.8312 52.6266 69.1388 53.0895 69.3732 53.5934C69.6134 54.0915 69.7833 54.6217 69.8829 55.1842C69.9884 55.7467 70.0411 56.318 70.0411 56.8981C70.0411 57.5544 70.0001 58.2018 69.9181 58.8405C69.8419 59.4733 69.6954 60.0739 69.4786 60.6423C69.2677 61.2106 68.9689 61.735 68.5821 62.2155C68.2013 62.696 67.7062 63.112 67.0968 63.4635C66.4933 63.8092 65.7609 64.0817 64.8995 64.2809C64.0382 64.4743 63.0216 64.571 61.8497 64.571ZM62.3507 62.2594C62.6144 62.2594 62.8282 62.1862 62.9923 62.0397C63.1622 61.8932 63.2941 61.6823 63.3878 61.4069C63.4874 61.1315 63.5548 60.7946 63.59 60.3962C63.631 59.9977 63.6515 59.5466 63.6515 59.0426V58.6471C63.6515 58.2018 63.6486 57.7419 63.6427 57.2673C63.6368 56.7868 63.6193 56.318 63.59 55.861C63.5607 55.3981 63.5109 54.9616 63.4405 54.5514C63.3761 54.1413 63.2823 53.7809 63.1593 53.4704C63.0421 53.154 62.8898 52.9049 62.7023 52.7233C62.5206 52.5417 62.295 52.4508 62.0255 52.4508C61.7501 52.4508 61.5275 52.5153 61.3575 52.6442C61.1876 52.7673 61.0558 52.9518 60.962 53.1979C60.8741 53.4382 60.8126 53.737 60.7775 54.0944C60.7482 54.4518 60.7335 54.8649 60.7335 55.3337C60.7335 55.7614 60.7364 56.2301 60.7423 56.7399C60.7482 57.2497 60.7657 57.7624 60.795 58.278C60.8243 58.7878 60.8712 59.2829 60.9357 59.7633C61.0001 60.2438 61.0909 60.6686 61.2081 61.0378C61.3312 61.4069 61.4835 61.7028 61.6652 61.9255C61.8527 62.1481 62.0812 62.2594 62.3507 62.2594Z" fill="#BDBDBD"/>
<path d="M89.8679 57.7243C90.1374 57.7243 90.3542 57.6598 90.5182 57.5309C90.6823 57.402 90.8054 57.238 90.8874 57.0387C90.9694 56.8395 91.0221 56.6169 91.0456 56.3708C91.0749 56.1247 91.0895 55.8874 91.0895 55.6589C91.0895 55.5065 91.0866 55.3659 91.0807 55.237C91.0749 55.1081 91.072 54.9909 91.072 54.8854C91.072 54.5514 91.0573 54.2174 91.028 53.8835C91.0046 53.5436 90.9401 53.2389 90.8346 52.9694C90.735 52.6999 90.5827 52.4801 90.3776 52.3102C90.1725 52.1403 89.8942 52.0553 89.5427 52.0553C89.32 52.0553 89.1442 52.0934 89.0153 52.1696C88.8923 52.2399 88.7985 52.3395 88.7341 52.4684C88.6755 52.5973 88.6374 52.7467 88.6198 52.9167C88.6081 53.0807 88.6022 53.2594 88.6022 53.4528V57.6364C88.6198 57.654 88.6755 57.6686 88.7692 57.6803C88.8512 57.6921 88.9743 57.7038 89.1384 57.7155C89.3083 57.7214 89.5514 57.7243 89.8679 57.7243ZM90.694 50.3503C91.7956 50.3503 92.7536 50.4792 93.568 50.737C94.3884 50.9889 95.068 51.3229 95.6071 51.7389C96.152 52.1491 96.5563 52.6208 96.82 53.154C97.0895 53.6813 97.2243 54.2204 97.2243 54.7712C97.2243 55.3395 97.0837 55.8991 96.8024 56.4499C96.527 56.9948 96.1139 57.4811 95.5632 57.9089C95.0182 58.3366 94.3386 58.6823 93.5241 58.946C92.7096 59.2038 91.7663 59.3327 90.694 59.3327C90.6003 59.3327 90.4538 59.3327 90.2546 59.3327C90.0554 59.3268 89.8444 59.3239 89.6218 59.3239C89.405 59.318 89.197 59.3151 88.9977 59.3151C88.7985 59.3092 88.655 59.3034 88.5671 59.2975V60.6247C88.5671 60.8883 88.6022 61.0934 88.6725 61.2399C88.7429 61.3864 88.8307 61.4977 88.9362 61.5739C89.0417 61.6501 89.1559 61.7028 89.279 61.7321C89.402 61.7614 89.5163 61.7936 89.6218 61.8288C89.7272 61.8639 89.8151 61.9137 89.8854 61.9782C89.9557 62.0368 89.9909 62.1364 89.9909 62.277C89.9909 63.0094 89.613 63.5397 88.8571 63.8678C88.1012 64.1901 87.0085 64.3512 85.5788 64.3512C84.8874 64.3512 84.2721 64.3131 83.7331 64.237C83.1999 64.1549 82.7487 64.0319 82.3796 63.8678C82.0163 63.6979 81.738 63.4811 81.5446 63.2174C81.3571 62.9538 81.2634 62.6403 81.2634 62.277C81.2634 62.1364 81.2985 62.0368 81.3688 61.9782C81.4391 61.9137 81.5241 61.8669 81.6237 61.8376C81.7292 61.8024 81.8405 61.7702 81.9577 61.7409C82.0807 61.7116 82.1921 61.6618 82.2917 61.5915C82.3971 61.5153 82.485 61.4069 82.5554 61.2663C82.6257 61.1257 82.6608 60.9235 82.6608 60.6598V54.0329C82.6608 53.7751 82.6257 53.5758 82.5554 53.4352C82.485 53.2887 82.3971 53.1803 82.2917 53.11C82.1921 53.0339 82.0807 52.9811 81.9577 52.9518C81.8405 52.9225 81.7292 52.8932 81.6237 52.8639C81.5241 52.8288 81.4391 52.7819 81.3688 52.7233C81.2985 52.6589 81.2634 52.5563 81.2634 52.4157C81.2634 52.0583 81.3542 51.7507 81.5358 51.4928C81.7233 51.2292 81.9958 51.0124 82.3532 50.8424C82.7106 50.6725 83.1501 50.5495 83.6716 50.4733C84.193 50.3913 84.7907 50.3503 85.4645 50.3503H90.694Z" fill="#BDBDBD"/>
<path fill-rule="evenodd" clip-rule="evenodd" d="M73.526 0.757028C70.9139 0.346624 67.8375 0.528337 49.7987 0.331114C37.1095 0.192459 28.7619 -0.246826 26.0188 0.186217C23.2758 0.61926 19.0273 3.45365 19.1216 7.0835C19.2159 10.7133 23.4585 13.5417 25.9334 13.8953C28.4083 14.2489 70.7282 15.0624 73.367 14.5451C76.0057 14.0277 80.3807 11.774 80.3405 7.57155C80.3002 3.3691 76.1381 1.16743 73.526 0.757028ZM68.5805 5.96458C68.6292 6.13641 68.6278 6.44233 68.5773 6.64441C68.4931 6.98083 68.3736 7.12359 67.1595 8.33765C65.9121 9.58505 65.8113 9.66846 65.4541 9.7479C64.4303 9.97557 63.4848 9.05752 63.7107 8.05516C63.7796 7.74986 63.9184 7.58626 65.1715 6.33396C66.4069 5.09923 66.5897 4.94359 66.8673 4.88932C67.6722 4.73206 68.3511 5.15812 68.5805 5.96458ZM59.9516 5.83578C60.0005 6.02957 60.0047 6.34667 59.961 6.54065C59.8868 6.86953 59.7867 6.9855 58.4706 8.26662C57.1282 9.57332 57.0421 9.64276 56.6964 9.69713C56.2335 9.76998 55.5805 9.48517 55.3096 9.09232C55.0475 8.71221 55.0054 8.01203 55.2215 7.62506C55.3173 7.45339 55.9187 6.78965 56.5579 6.15C57.6332 5.07388 57.7533 4.9766 58.1633 4.84835C58.9263 4.60968 59.7584 5.06914 59.9516 5.83578ZM51.337 5.68776C51.3991 5.88504 51.4017 6.23065 51.3428 6.45589C51.242 6.84109 51.1594 6.9415 49.943 8.15795C48.7265 9.37439 48.6261 9.45694 48.2409 9.55778C48.0157 9.61668 47.6701 9.61405 47.4728 9.55201C46.7387 9.32094 46.3251 8.57795 46.5154 7.83227C46.6165 7.43622 46.6721 7.37036 47.9973 6.07969C49.2967 4.814 49.3942 4.73544 49.7304 4.68251C50.4297 4.57252 51.1225 5.00596 51.337 5.68776ZM42.7613 5.71461C42.8776 6.46419 42.8349 6.53708 41.4361 7.9799C40.2038 9.25103 40.1335 9.31025 39.7027 9.44257C38.6498 9.76598 37.6508 8.82822 37.9014 7.75164C37.9756 7.43274 38.1027 7.28128 39.3096 6.07398C40.8518 4.53104 41.0312 4.43042 41.7978 4.67803C42.3232 4.84767 42.6876 5.2396 42.7613 5.71461ZM34.1622 5.6774C34.2813 6.31763 34.1996 6.44444 32.7044 7.94058C31.4147 9.23128 31.2957 9.33098 30.9538 9.4083C29.9608 9.63307 29.0311 8.65229 29.2829 7.64578C29.3669 7.31016 29.4868 7.16647 30.6676 5.98569C32.0942 4.55903 32.3344 4.40171 32.9243 4.50678C33.5489 4.6181 34.0539 5.09554 34.1622 5.6774Z" fill="#BDBDBD"/>
</svg>
