<svg width="124" height="48" viewBox="0 0 124 48" fill="none" xmlns="http://www.w3.org/2000/svg">
<path d="M70.9611 12.0826C69.9584 12.0826 69.1584 11.768 68.5611 11.1386C67.9744 10.4986 67.6811 9.64529 67.6811 8.57862C67.6811 7.77863 67.8358 7.07463 68.1451 6.46662C68.4651 5.84796 68.9024 5.36796 69.4571 5.02662C70.0118 4.67462 70.6411 4.49862 71.3451 4.49862C71.8251 4.49862 72.2624 4.57862 72.6571 4.73862C73.0518 4.88796 73.3611 5.09596 73.5851 5.36262C73.8198 5.62929 73.9371 5.92262 73.9371 6.24262C73.9371 6.70129 73.7078 6.93062 73.2491 6.93062C73.1531 6.93062 73.0624 6.91996 72.9771 6.89862C72.8918 6.86662 72.8064 6.82929 72.7211 6.78662C72.7211 6.22129 72.5878 5.78929 72.3211 5.49062C72.0651 5.19196 71.6864 5.04262 71.1851 5.04262C70.5024 5.04262 69.9798 5.31462 69.6171 5.85862C69.2544 6.39196 69.0731 7.15996 69.0731 8.16262C69.0731 10.2853 69.8678 11.3466 71.4571 11.3466C72.3318 11.3466 73.1104 11.0053 73.7931 10.3226L74.0011 10.7066C73.6704 11.1226 73.2278 11.4586 72.6731 11.7146C72.1291 11.96 71.5584 12.0826 70.9611 12.0826Z" fill="#BDBDBD"/>
<path d="M80.559 12.0826C80.0576 12.0826 79.6416 11.9386 79.311 11.6506C78.9803 11.352 78.815 10.9573 78.815 10.4666C78.815 9.28263 79.5936 8.50396 81.151 8.13062L83.039 7.69862V6.62662C83.039 6.06129 82.943 5.65062 82.751 5.39462C82.559 5.12796 82.2603 4.99462 81.855 4.99462C81.3643 4.99462 80.9856 5.14396 80.719 5.44262C80.4523 5.73062 80.319 6.15196 80.319 6.70662C80.2016 6.82396 80.031 6.88262 79.807 6.88262C79.4123 6.88262 79.215 6.68529 79.215 6.29062C79.215 5.93862 79.3376 5.62929 79.583 5.36262C79.8283 5.09596 80.1643 4.88796 80.591 4.73862C81.0283 4.57862 81.5136 4.49862 82.047 4.49862C82.8363 4.49862 83.4123 4.69596 83.775 5.09062C84.1483 5.48529 84.335 6.11462 84.335 6.97862V10.7386C84.335 11.112 84.479 11.2986 84.767 11.2986C84.8843 11.2986 85.0123 11.2666 85.151 11.2026C85.3003 11.1386 85.423 11.0693 85.519 10.9946L85.631 11.4266C85.4603 11.6293 85.2416 11.7893 84.975 11.9066C84.7083 12.024 84.4523 12.0826 84.207 12.0826C83.8656 12.0826 83.599 11.976 83.407 11.7626C83.215 11.5386 83.119 11.224 83.119 10.8186H83.055C82.7563 11.224 82.3883 11.5386 81.951 11.7626C81.5136 11.976 81.0496 12.0826 80.559 12.0826ZM81.167 11.3306C81.9243 11.3306 82.5536 11.0106 83.055 10.3706V8.19462L81.439 8.57862C80.5003 8.79196 80.031 9.30396 80.031 10.1146C80.031 10.488 80.1323 10.7866 80.335 11.0106C80.5376 11.224 80.815 11.3306 81.167 11.3306Z" fill="#BDBDBD"/>
<path d="M89.7482 11.8906C89.7482 11.5706 89.8335 11.3786 90.0042 11.3146L90.7402 11.0746V5.49062L89.5242 5.47462C89.5242 5.32529 89.5402 5.19196 89.5722 5.07462C89.6149 4.94662 89.6735 4.85596 89.7482 4.80262L90.7402 4.77062C90.7829 3.82129 90.9749 3.00529 91.3162 2.32262C91.6682 1.62929 92.1109 1.09596 92.6442 0.722625C93.1882 0.338625 93.7642 0.146625 94.3722 0.146625C94.6815 0.146625 94.9109 0.210624 95.0602 0.338624C95.2202 0.455958 95.3002 0.605291 95.3002 0.786625C95.3002 0.903958 95.2629 1.04796 95.1882 1.21862H94.2122C93.4869 1.21862 92.9429 1.45862 92.5802 1.93862C92.2176 2.40796 92.0362 3.24529 92.0362 4.45062V4.70662L94.3242 4.62662C94.3775 4.72262 94.4042 4.82396 94.4042 4.93062C94.4042 5.10129 94.3669 5.24529 94.2922 5.36262C94.2282 5.46929 94.1376 5.53329 94.0202 5.55462L92.0362 5.52262V11.0266L93.1242 11.2986C93.1242 11.4586 93.1029 11.5813 93.0602 11.6666C93.0282 11.7413 92.9536 11.816 92.8362 11.8906H89.7482Z" fill="#BDBDBD"/>
<path d="M100.738 12.0826C100.087 12.0826 99.5168 11.9386 99.0261 11.6506C98.5461 11.352 98.1728 10.9413 97.9061 10.4186C97.6394 9.89596 97.5061 9.29329 97.5061 8.61062C97.5061 7.83196 97.6661 7.13329 97.9861 6.51462C98.3168 5.89596 98.7541 5.40529 99.2981 5.04262C99.8421 4.67996 100.434 4.49862 101.074 4.49862C101.629 4.49862 102.109 4.62662 102.514 4.88262C102.93 5.12796 103.255 5.47462 103.49 5.92262C103.725 6.37062 103.842 6.88796 103.842 7.47462C103.842 7.67729 103.805 7.81596 103.73 7.89062C103.655 7.95462 103.57 7.98662 103.474 7.98662H98.8981C98.8981 8.03996 98.8981 8.09862 98.8981 8.16262C98.8981 9.12262 99.1061 9.89596 99.5221 10.4826C99.9488 11.0586 100.546 11.3466 101.314 11.3466C101.741 11.3466 102.151 11.24 102.546 11.0266C102.941 10.8026 103.293 10.4933 103.602 10.0986L103.81 10.4986C103.469 10.9893 103.021 11.3786 102.466 11.6666C101.911 11.944 101.335 12.0826 100.738 12.0826ZM100.898 5.04262C100.375 5.04262 99.9381 5.25596 99.5861 5.68262C99.2341 6.09862 99.0154 6.69596 98.9301 7.47462L102.61 7.37862C102.599 6.66396 102.434 6.09862 102.114 5.68262C101.805 5.25596 101.399 5.04262 100.898 5.04262ZM99.5861 3.65062C99.5008 3.65062 99.4208 3.61862 99.3461 3.55462C99.2714 3.47996 99.2341 3.38396 99.2341 3.26662C99.8208 2.69062 100.279 2.23729 100.61 1.90662C100.941 1.57596 101.186 1.34129 101.346 1.20262C101.506 1.05329 101.618 0.962624 101.682 0.930624C101.757 0.887958 101.826 0.866625 101.89 0.866625C102.039 0.866625 102.183 0.946625 102.322 1.10662C102.461 1.25596 102.53 1.42129 102.53 1.60262C102.53 1.65596 102.509 1.70929 102.466 1.76262C102.423 1.81596 102.311 1.90662 102.13 2.03462C101.949 2.16262 101.655 2.35462 101.25 2.61062C100.855 2.85596 100.301 3.20262 99.5861 3.65062Z" fill="#BDBDBD"/>
<path d="M52.2363 0.791016C50.9668 1.51367 49.7754 2.40234 48.6621 3.45703C49.873 3.98438 50.9863 4.63867 52.002 5.41992C53.0371 6.20117 53.9258 7.10938 54.668 8.14453C55.4297 9.17969 56.0156 10.3516 56.4258 11.6602C56.8555 12.9492 57.0703 14.375 57.0703 15.9375C57.0703 17.2656 56.8359 18.5254 56.3672 19.7168C55.918 20.8887 55.2832 21.9531 54.4629 22.9102C53.6621 23.8477 52.6953 24.6484 51.5625 25.3125C50.4492 25.957 49.2285 26.4062 47.9004 26.6602C48.5449 27.5391 49.0625 28.5156 49.4531 29.5898C49.8633 30.6445 50.0684 31.7969 50.0684 33.0469C50.0684 33.5547 50 34.1602 49.8633 34.8633C49.7266 35.5469 49.5508 36.2695 49.3359 37.0312C49.1406 37.793 48.916 38.5645 48.6621 39.3457C48.4277 40.1074 48.2031 40.8203 47.9883 41.4844C47.793 42.1484 47.627 42.7344 47.4902 43.2422C47.3535 43.75 47.2852 44.1211 47.2852 44.3555C47.2852 44.9219 47.4414 45.3613 47.7539 45.6738C48.0859 46.0059 48.5352 46.1719 49.1016 46.1719C50.1367 46.1719 51.1133 45.9473 52.0312 45.498C52.9492 45.0684 53.8086 44.4824 54.6094 43.7402C55.4297 43.0176 56.2012 42.1777 56.9238 41.2207C57.6465 40.2441 58.3301 39.2285 58.9746 38.1738C59.6387 37.1191 60.2637 36.0645 60.8496 35.0098C61.4551 33.9355 62.041 32.9199 62.6074 31.9629L63.6914 32.7832C62.4609 34.9707 61.2988 36.9824 60.2051 38.8184C59.1309 40.6348 58.0273 42.1973 56.8945 43.5059C55.7617 44.834 54.5605 45.8691 53.291 46.6113C52.0215 47.3535 50.5762 47.7246 48.9551 47.7246C47.4512 47.7246 46.2793 47.3047 45.4395 46.4648C44.6191 45.6445 44.209 44.4727 44.209 42.9492C44.209 41.8945 44.3652 40.8887 44.6777 39.9316C44.9902 38.9746 45.332 38.0371 45.7031 37.1191C46.0938 36.2012 46.4453 35.2832 46.7578 34.3652C47.0703 33.4473 47.2266 32.4902 47.2266 31.4941C47.2266 30.6152 47.0801 29.7949 46.7871 29.0332C46.5137 28.2715 46.123 27.5488 45.6152 26.8652C45.0098 26.8652 44.3164 26.8359 43.5352 26.7773C42.7734 26.7188 42.041 26.6016 41.3379 26.4258C40.6543 26.25 40.0781 25.9961 39.6094 25.6641C39.1406 25.332 38.9062 24.8926 38.9062 24.3457C38.9062 23.8574 39.1016 23.4668 39.4922 23.1738C39.8828 22.8613 40.459 22.7051 41.2207 22.7051C42.0996 22.7051 42.9492 22.9102 43.7695 23.3203C44.5898 23.7109 45.4004 24.2285 46.2012 24.873C47.334 24.6191 48.3887 24.1602 49.3652 23.4961C50.3418 22.832 51.1816 22.041 51.8848 21.123C52.6074 20.1855 53.1641 19.1504 53.5547 18.0176C53.9648 16.8848 54.1699 15.7227 54.1699 14.5312C54.1699 13.3008 54.0039 12.1777 53.6719 11.1621C53.3398 10.127 52.8711 9.19922 52.2656 8.37891C51.6602 7.55859 50.9473 6.8457 50.127 6.24023C49.3066 5.61523 48.4082 5.09766 47.4316 4.6875C45.9473 6.30859 44.5898 8.17383 43.3594 10.2832C42.1289 12.373 40.9473 14.5898 39.8145 16.9336C38.7012 19.2578 37.6172 21.6406 36.5625 24.082C35.5078 26.5039 34.4043 28.8672 33.252 31.1719C32.1191 33.457 30.8984 35.6152 29.5898 37.6465C28.3008 39.6777 26.8652 41.4551 25.2832 42.9785C23.7207 44.502 21.9727 45.7031 20.0391 46.582C18.125 47.4609 15.9668 47.9004 13.5645 47.9004C11.6895 47.9004 9.93164 47.6074 8.29102 47.0215C6.65039 46.4355 5.21484 45.5664 3.98438 44.4141C2.75391 43.2812 1.77734 41.875 1.05469 40.1953C0.351562 38.5156 0 36.582 0 34.3945C0 33.0664 0.15625 31.582 0.46875 29.9414C0.800781 28.3008 1.31836 26.5918 2.02148 24.8145C2.72461 23.0176 3.62305 21.2109 4.7168 19.3945C5.83008 17.5586 7.1582 15.7812 8.70117 14.0625C10.2637 12.3438 12.0605 10.7324 14.0918 9.22852C16.1426 7.72461 18.4473 6.41602 21.0059 5.30273C23.584 4.16992 26.4355 3.28125 29.5605 2.63672C32.6855 1.99219 36.1133 1.66992 39.8438 1.66992C41.1133 1.66992 42.373 1.77734 43.623 1.99219C44.873 2.1875 46.084 2.48047 47.2559 2.87109C47.9395 2.34375 48.6523 1.8457 49.3945 1.37695C50.1367 0.888672 50.918 0.429688 51.7383 0L52.2363 0.791016ZM12.832 46.3477C14.9414 46.3477 16.8164 45.9277 18.457 45.0879C20.0977 44.248 21.582 43.1152 22.9102 41.6895C24.2383 40.2441 25.4492 38.5547 26.543 36.6211C27.6562 34.668 28.7305 32.5977 29.7656 30.4102C30.8203 28.2031 31.875 25.918 32.9297 23.5547C34.0039 21.1719 35.166 18.8281 36.416 16.5234C37.666 14.2188 39.0527 12.002 40.5762 9.87305C42.0996 7.74414 43.8477 5.81055 45.8203 4.07227C44.0234 3.54492 42.1387 3.28125 40.166 3.28125C36.5332 3.28125 33.0762 3.76953 29.7949 4.74609C26.5332 5.72266 23.4961 7.04102 20.6836 8.70117C17.8906 10.3613 15.3613 12.2852 13.0957 14.4727C10.8496 16.6602 8.92578 18.9648 7.32422 21.3867C5.74219 23.7891 4.52148 26.25 3.66211 28.7695C2.80273 31.2695 2.37305 33.6621 2.37305 35.9473C2.37305 37.373 2.61719 38.7207 3.10547 39.9902C3.61328 41.2598 4.32617 42.3633 5.24414 43.3008C6.16211 44.2383 7.26562 44.9805 8.55469 45.5273C9.84375 46.0742 11.2695 46.3477 12.832 46.3477ZM44.1211 25.2539C43.6328 24.9219 43.1152 24.6387 42.5684 24.4043C42.0215 24.1699 41.543 24.0527 41.1328 24.0527C40.8594 24.0527 40.6738 24.0918 40.5762 24.1699C40.4785 24.248 40.4297 24.3359 40.4297 24.4336C40.4297 24.6094 40.5566 24.7559 40.8105 24.873C41.0645 24.9707 41.377 25.0586 41.748 25.1367C42.1387 25.1953 42.5391 25.2344 42.9492 25.2539C43.3789 25.2734 43.7695 25.2734 44.1211 25.2539Z" fill="#BDBDBD"/>
<path d="M79.1602 34.9219C79.2383 34.9414 79.3164 34.9512 79.3945 34.9512C79.4727 34.9512 79.5605 34.9512 79.6582 34.9512C80.2051 34.9512 80.7031 34.9023 81.1523 34.8047C81.6016 34.6875 82.0117 34.5117 82.3828 34.2773C82.7734 34.043 83.1445 33.7402 83.4961 33.3691C83.8477 32.9785 84.1895 32.5098 84.5215 31.9629L85.5762 32.7832C84.6387 34.1113 83.6719 35.0391 82.6758 35.5664C81.6797 36.0938 80.625 36.3574 79.5117 36.3574C79.1016 36.3574 78.7402 36.3184 78.4277 36.2402C77.5879 37.6465 76.6895 38.8477 75.7324 39.8438C74.7754 40.8203 73.7988 41.6211 72.8027 42.2461C71.8066 42.8711 70.8203 43.3203 69.8438 43.5938C68.8672 43.8867 67.959 44.0332 67.1191 44.0332C66.2598 44.0332 65.459 43.877 64.7168 43.5645C63.9941 43.2715 63.3691 42.8418 62.8418 42.2754C62.3145 41.709 61.9043 41.0352 61.6113 40.2539C61.3184 39.4727 61.1719 38.5938 61.1719 37.6172C61.1719 36.6406 61.3281 35.6445 61.6406 34.6289C61.9531 33.6133 62.373 32.6074 62.9004 31.6113C63.4473 30.6152 64.082 29.6582 64.8047 28.7402C65.5273 27.8027 66.3086 26.9336 67.1484 26.1328C67.9883 25.332 68.8574 24.6094 69.7559 23.9648C70.6543 23.3203 71.5527 22.793 72.4512 22.3828L73.3887 23.6133C72.3535 24.3555 71.2988 25.293 70.2246 26.4258C69.1699 27.5586 68.2031 28.7988 67.3242 30.1465C66.4648 31.4941 65.752 32.9004 65.1855 34.3652C64.6387 35.8105 64.3652 37.2168 64.3652 38.584C64.3652 39.8145 64.6387 40.7715 65.1855 41.4551C65.7324 42.1191 66.5625 42.4512 67.6758 42.4512C68.5352 42.4512 69.3848 42.2754 70.2246 41.9238C71.0645 41.5723 71.8848 41.0938 72.6855 40.4883C73.4863 39.8828 74.2578 39.1699 75 38.3496C75.7422 37.5098 76.4453 36.6211 77.1094 35.6836C76.543 35.3516 76.0449 34.9121 75.6152 34.3652C75.1855 33.7988 74.8242 33.1641 74.5312 32.4609C74.2383 31.7383 74.0137 30.9668 73.8574 30.1465C73.7207 29.3262 73.6523 28.4863 73.6523 27.627C73.6523 26.7676 73.7598 25.957 73.9746 25.1953C74.1895 24.4336 74.4824 23.7695 74.8535 23.2031C75.2441 22.6172 75.6934 22.1582 76.2012 21.8262C76.709 21.4941 77.2656 21.3281 77.8711 21.3281C78.418 21.3281 78.9062 21.4746 79.3359 21.7676C79.7656 22.041 80.127 22.4316 80.4199 22.9395C80.7129 23.4277 80.9375 24.0137 81.0938 24.6973C81.25 25.3809 81.3281 26.1133 81.3281 26.8945C81.3281 27.4805 81.2793 28.125 81.1816 28.8281C81.084 29.5312 80.9375 30.2441 80.7422 30.9668C80.5664 31.6699 80.3418 32.373 80.0684 33.0762C79.8145 33.7598 79.5117 34.375 79.1602 34.9219ZM75.1758 27.627C75.1758 28.1934 75.2246 28.8086 75.3223 29.4727C75.4199 30.1367 75.5762 30.7812 75.791 31.4062C76.0059 32.0312 76.2793 32.6172 76.6113 33.1641C76.9434 33.6914 77.3535 34.1113 77.8418 34.4238C78.1934 33.7402 78.4863 33.0469 78.7207 32.3438C78.9746 31.6211 79.1797 30.9277 79.3359 30.2637C79.5117 29.5996 79.6289 28.9844 79.6875 28.418C79.7656 27.832 79.8047 27.3242 79.8047 26.8945C79.8047 26.3086 79.7559 25.7715 79.6582 25.2832C79.5605 24.7949 79.4238 24.375 79.248 24.0234C79.0918 23.6523 78.8867 23.3691 78.6328 23.1738C78.3984 22.959 78.1348 22.8516 77.8418 22.8516C77.4512 22.8516 77.0898 22.9883 76.7578 23.2617C76.4258 23.5156 76.1426 23.8672 75.9082 24.3164C75.6738 24.7461 75.4883 25.2539 75.3516 25.8398C75.2344 26.4062 75.1758 27.002 75.1758 27.627Z" fill="#BDBDBD"/>
<path d="M93.9551 19.8926C93.8574 20.0684 93.7305 20.2637 93.5742 20.4785C93.418 20.6738 93.2617 20.9082 93.1055 21.1816C92.9688 21.4355 92.8418 21.7383 92.7246 22.0898C92.627 22.4414 92.5781 22.8613 92.5781 23.3496C92.5781 23.7598 92.6758 24.3164 92.8711 25.0195C93.0859 25.7227 93.3105 26.5332 93.5449 27.4512C93.7793 28.3496 93.9941 29.3359 94.1895 30.4102C94.4043 31.4648 94.5117 32.5586 94.5117 33.6914C94.5117 35.3516 94.2871 36.8164 93.8379 38.0859C93.3887 39.3555 92.793 40.4395 92.0508 41.3379C93.5742 40.5176 95.0684 39.3457 96.5332 37.8223C97.998 36.2793 99.4727 34.3262 100.957 31.9629L101.953 32.8418C101.113 34.2285 100.156 35.6055 99.082 36.9727C98.0273 38.3203 96.8652 39.541 95.5957 40.6348C94.3262 41.709 92.959 42.5781 91.4941 43.2422C90.0293 43.9258 88.4766 44.2676 86.8359 44.2676C85.3711 44.2676 84.1406 43.916 83.1445 43.2129C82.1289 42.5293 81.5039 41.4941 81.2695 40.1074L82.3242 39.9023C82.3242 40.0195 82.3828 40.2148 82.5 40.4883C82.5977 40.7422 82.7637 40.9961 82.998 41.25C83.2324 41.5039 83.5547 41.7285 83.9648 41.9238C84.3555 42.1191 84.8438 42.2168 85.4297 42.2168C86.2109 42.2168 86.9043 42.041 87.5098 41.6895C88.1152 41.3184 88.6426 40.8398 89.0918 40.2539C89.541 39.668 89.9219 39.0039 90.2344 38.2617C90.5469 37.5 90.791 36.7188 90.9668 35.918C91.1621 35.1172 91.2988 34.3359 91.377 33.5742C91.4551 32.8125 91.4941 32.1191 91.4941 31.4941C91.4941 30.8691 91.4648 30.1758 91.4062 29.4141C91.3672 28.6523 91.3184 27.9297 91.2598 27.2461C91.2012 26.543 91.1426 25.9375 91.084 25.4297C91.0449 24.9023 91.0254 24.5605 91.0254 24.4043V24.3457C90.7715 24.6191 90.4688 25.0195 90.1172 25.5469C89.7656 26.0742 89.3848 26.6504 88.9746 27.2754C88.584 27.9004 88.1836 28.5352 87.7734 29.1797C87.3828 29.8242 87.0215 30.4102 86.6895 30.9375C86.377 31.4648 86.1133 31.9043 85.8984 32.2559C85.7031 32.5879 85.6055 32.7637 85.6055 32.7832L84.5508 31.9629C84.5703 31.9434 84.8145 31.5234 85.2832 30.7031C85.752 29.8828 86.3672 28.8477 87.1289 27.5977C87.9102 26.3281 88.7891 24.9316 89.7656 23.4082C90.7422 21.8652 91.748 20.3711 92.7832 18.9258L93.9551 19.8926Z" fill="#BDBDBD"/>
<path d="M103.184 36.2109C103.145 36.4453 103.115 36.6797 103.096 36.9141C103.076 37.1484 103.066 37.3828 103.066 37.6172C103.066 38.3203 103.164 38.9941 103.359 39.6387C103.574 40.2637 103.877 40.8203 104.268 41.3086C104.678 41.7773 105.176 42.1484 105.762 42.4219C106.367 42.6953 107.051 42.832 107.812 42.832C110.371 42.832 112.842 41.9629 115.225 40.2246C117.607 38.4863 119.98 35.7324 122.344 31.9629L123.34 32.8418C122.051 34.9902 120.742 36.8066 119.414 38.291C118.086 39.7559 116.758 40.9473 115.43 41.8652C114.121 42.7832 112.832 43.4473 111.562 43.8574C110.293 44.2676 109.082 44.4727 107.93 44.4727C107.09 44.4727 106.201 44.3555 105.264 44.1211C104.326 43.8867 103.457 43.4961 102.656 42.9492C101.875 42.4023 101.23 41.6699 100.723 40.752C100.195 39.834 99.9316 38.6914 99.9316 37.3242C99.9316 35.8594 100.186 34.4531 100.693 33.1055C101.182 31.7383 101.826 30.4688 102.627 29.2969C103.428 28.125 104.346 27.0605 105.381 26.1035C106.416 25.127 107.461 24.2969 108.516 23.6133C109.59 22.9297 110.635 22.4023 111.65 22.0312C112.666 21.6406 113.564 21.4453 114.346 21.4453C114.854 21.4453 115.371 21.5234 115.898 21.6797C116.426 21.8359 116.895 22.0801 117.305 22.4121C117.734 22.7441 118.076 23.1836 118.33 23.7305C118.604 24.2773 118.74 24.9316 118.74 25.6934C118.74 26.7285 118.496 27.7051 118.008 28.623C117.539 29.5215 116.904 30.3613 116.104 31.1426C115.303 31.9043 114.375 32.5977 113.32 33.2227C112.266 33.8281 111.162 34.3457 110.01 34.7754C108.857 35.2051 107.695 35.5469 106.523 35.8008C105.352 36.0547 104.238 36.1914 103.184 36.2109ZM103.418 34.9512C104.727 34.8145 105.957 34.541 107.109 34.1309C108.262 33.7207 109.316 33.2227 110.273 32.6367C111.23 32.0312 112.08 31.377 112.822 30.6738C113.584 29.9707 114.219 29.2578 114.727 28.5352C115.234 27.8125 115.625 27.1191 115.898 26.4551C116.172 25.791 116.309 25.1953 116.309 24.668C116.309 24.1406 116.162 23.7207 115.869 23.4082C115.596 23.0957 115.264 22.9395 114.873 22.9395C114.014 22.9395 113.047 23.252 111.973 23.877C110.898 24.4824 109.824 25.332 108.75 26.4258C107.676 27.5 106.66 28.7695 105.703 30.2344C104.766 31.6992 104.004 33.2715 103.418 34.9512ZM114.639 17.8125H112.617L117.832 12.1289H121.494L114.639 17.8125Z" fill="#BDBDBD"/>
</svg>
