<svg xmlns="http://www.w3.org/2000/svg" width="61" height="88" fill="none" viewBox="0 0 61 88"><path fill="#BDBDBD" d="M60.6812 27.4296C55.2367 27.3384 49.4271 21.4984 52.5296 14.5938C43.4654 17.6355 34.9792 9.75754 36.7433 0.723795C15.0562 -3.83871 0 14.0159 0 30.5017C0 47.2917 13.6267 60.9184 30.4167 60.9184C48.3321 60.9184 62.4758 45.4667 60.6812 27.4296ZM19.7708 39.6267C17.2462 39.6267 15.2083 37.5888 15.2083 35.0642C15.2083 32.5396 17.2462 30.5017 19.7708 30.5017C22.2954 30.5017 24.3333 32.5396 24.3333 35.0642C24.3333 37.5888 22.2954 39.6267 19.7708 39.6267ZM25.8542 24.4184C23.3296 24.4184 21.2917 22.3805 21.2917 19.8559C21.2917 17.3313 23.3296 15.2934 25.8542 15.2934C28.3787 15.2934 30.4167 17.3313 30.4167 19.8559C30.4167 22.3805 28.3787 24.4184 25.8542 24.4184ZM39.5417 42.6684C37.8687 42.6684 36.5 41.2996 36.5 39.6267C36.5 37.9538 37.8687 36.585 39.5417 36.585C41.2146 36.585 42.5833 37.9538 42.5833 39.6267C42.5833 41.2996 41.2146 42.6684 39.5417 42.6684Z"/><path fill="#BDBDBD" d="M6.78875 87.3217C5.69008 87.3217 4.74075 87.087 3.94075 86.6177C3.15141 86.1377 2.54875 85.487 2.13275 84.6657C1.71675 83.8444 1.50875 82.9164 1.50875 81.8817C1.50875 80.815 1.73808 79.8444 2.19675 78.9697C2.65541 78.0844 3.28475 77.391 4.08475 76.8897C4.89541 76.3777 5.79675 76.1217 6.78875 76.1217C7.72742 76.1217 8.51141 76.2444 9.14075 76.4897C9.77008 76.7244 10.2501 77.0337 10.5807 77.4177C10.7727 77.663 10.8901 77.967 10.9327 78.3297C10.9754 78.6924 10.9967 79.199 10.9967 79.8497H10.5167C10.3141 78.8684 9.94075 78.1217 9.39675 77.6097C8.85275 77.0977 8.14342 76.8417 7.26875 76.8417C6.18075 76.8417 5.32208 77.2257 4.69275 77.9937C4.06341 78.7617 3.74875 80.0577 3.74875 81.8817C3.74875 83.2364 4.03675 84.3617 4.61275 85.2577C5.18875 86.1537 6.07408 86.6017 7.26875 86.6017C8.01542 86.6017 8.69808 86.4044 9.31675 86.0097C9.94608 85.615 10.4527 85.0497 10.8367 84.3137L11.3967 84.7457C10.8847 85.6417 10.2661 86.2977 9.54075 86.7137C8.81542 87.119 7.89808 87.3217 6.78875 87.3217Z"/><path fill="#BDBDBD" d="M17.6481 87.3217C16.6135 87.3217 15.6908 87.0764 14.8801 86.5857C14.0801 86.095 13.4615 85.423 13.0241 84.5697C12.5868 83.7164 12.3681 82.767 12.3681 81.7217C12.3681 80.6764 12.5868 79.727 13.0241 78.8737C13.4615 78.0204 14.0801 77.3484 14.8801 76.8577C15.6908 76.367 16.6135 76.1217 17.6481 76.1217C18.6828 76.1217 19.6001 76.367 20.4001 76.8577C21.2001 77.3484 21.8188 78.0204 22.2561 78.8737C22.6935 79.727 22.9121 80.6764 22.9121 81.7217C22.9121 82.767 22.6935 83.7164 22.2561 84.5697C21.8188 85.423 21.2001 86.095 20.4001 86.5857C19.6001 87.0764 18.6828 87.3217 17.6481 87.3217ZM17.6481 86.6017C18.6188 86.6017 19.3708 86.1804 19.9041 85.3377C20.4375 84.4844 20.7041 83.279 20.7041 81.7217C20.7041 80.1644 20.4375 78.9644 19.9041 78.1217C19.3708 77.2684 18.6188 76.8417 17.6481 76.8417C16.6775 76.8417 15.9255 77.2684 15.3921 78.1217C14.8695 78.9644 14.6081 80.1644 14.6081 81.7217C14.6081 83.279 14.8695 84.4844 15.3921 85.3377C15.9255 86.1804 16.6775 86.6017 17.6481 86.6017Z"/><path fill="#BDBDBD" d="M29.3825 87.3217C28.3478 87.3217 27.4252 87.0764 26.6145 86.5857C25.8145 86.095 25.1958 85.423 24.7585 84.5697C24.3212 83.7164 24.1025 82.767 24.1025 81.7217C24.1025 80.6764 24.3212 79.727 24.7585 78.8737C25.1958 78.0204 25.8145 77.3484 26.6145 76.8577C27.4252 76.367 28.3478 76.1217 29.3825 76.1217C30.4172 76.1217 31.3345 76.367 32.1345 76.8577C32.9345 77.3484 33.5532 78.0204 33.9905 78.8737C34.4278 79.727 34.6465 80.6764 34.6465 81.7217C34.6465 82.767 34.4278 83.7164 33.9905 84.5697C33.5532 85.423 32.9345 86.095 32.1345 86.5857C31.3345 87.0764 30.4172 87.3217 29.3825 87.3217ZM29.3825 86.6017C30.3532 86.6017 31.1052 86.1804 31.6385 85.3377C32.1718 84.4844 32.4385 83.279 32.4385 81.7217C32.4385 80.1644 32.1718 78.9644 31.6385 78.1217C31.1052 77.2684 30.3532 76.8417 29.3825 76.8417C28.4118 76.8417 27.6598 77.2684 27.1265 78.1217C26.6038 78.9644 26.3425 80.1644 26.3425 81.7217C26.3425 83.279 26.6038 84.4844 27.1265 85.3377C27.6598 86.1804 28.4118 86.6017 29.3825 86.6017Z"/><path fill="#BDBDBD" d="M45.2471 87.1617C44.5751 87.1617 43.9298 87.0284 43.3111 86.7617C42.7031 86.4844 42.0471 85.9777 41.3431 85.2417L38.7671 82.5537V87.0017H36.6871L36.6711 78.5217C36.6711 77.9777 36.5965 77.5777 36.4471 77.3217C36.2978 77.055 35.9991 76.9217 35.5511 76.9217H35.3911V76.4417H37.3111C37.6845 76.4417 37.9725 76.5057 38.1751 76.6337C38.3885 76.7617 38.5378 76.975 38.6231 77.2737C38.7191 77.5724 38.7671 77.9884 38.7671 78.5217V81.5617L41.5351 78.1217C41.9298 77.6097 42.3511 77.2044 42.7991 76.9057C43.2578 76.5964 43.7805 76.4417 44.3671 76.4417H45.4871V77.0017C44.8258 77.0017 44.2551 77.087 43.7751 77.2577C43.3058 77.4177 42.9005 77.711 42.5591 78.1377L40.1751 81.0817L43.8711 84.9217C44.2658 85.359 44.7085 85.743 45.1991 86.0737C45.7005 86.3937 46.1058 86.575 46.4151 86.6177V87.0017C46.0951 87.1084 45.7058 87.1617 45.2471 87.1617Z"/><path fill="#BDBDBD" d="M48.9489 87.0017C48.5649 87.0017 48.2715 86.943 48.0689 86.8257C47.8662 86.6977 47.7222 86.4897 47.6369 86.2017C47.5515 85.903 47.5089 85.4764 47.5089 84.9217V76.4417H49.5889V84.9217C49.5889 85.4657 49.6635 85.871 49.8129 86.1377C49.9622 86.3937 50.2609 86.5217 50.7089 86.5217H50.8689V87.0017H48.9489Z"/><path fill="#BDBDBD" d="M52.6242 78.5217C52.6242 77.9777 52.5496 77.5777 52.4002 77.3217C52.2509 77.055 51.9523 76.9217 51.5042 76.9217H51.3442V76.4417H58.4002C59.3069 76.4417 59.7602 76.8684 59.7602 77.7217V79.0817H59.2803C59.2803 78.4204 59.1096 77.935 58.7682 77.6257C58.4376 77.3164 57.9416 77.1617 57.2802 77.1617H54.7042V81.1617H58.8643V81.8817H54.7042V86.2817H57.4402C58.0482 86.2817 58.5549 86.1484 58.9602 85.8817C59.3656 85.6044 59.7016 85.1297 59.9682 84.4577L60.4002 84.6177L59.9362 85.8817C59.7976 86.2657 59.6322 86.5484 59.4402 86.7297C59.2482 86.911 58.9496 87.0017 58.5443 87.0017H52.6242V78.5217Z"/></svg>