<svg xmlns="http://www.w3.org/2000/svg" width="95" height="90" fill="none" viewBox="0 0 95 90"><path fill="#BDBDBD" d="M55.8295 62.4154C53.5424 60.3332 53.555 51.2112 53.555 51.2112L64.7592 53.4857C64.7592 53.4857 58.1165 64.4976 55.8295 62.4154ZM49.0342 37.7606L71.4146 33.3517C73.9463 41.4134 69.2241 49.0208 69.2241 49.0208L53.5411 46.7324L49.0342 37.7606ZM22.105 19.7612C22.105 19.7612 12.7772 19.6499 10.9008 17.4868C9.02444 15.3237 19.8306 8.55704 19.8306 8.55704L22.105 19.7612ZM35.5556 24.2821L26.5839 19.7752L24.2955 4.09216C24.2955 4.09216 31.6541 -1.37034 39.9645 1.90169L35.5556 24.2821ZM66.8797 15.4222C69.8639 20.098 71.4006 28.8729 71.4006 28.8729L44.5413 33.2678L40.0485 28.7749L44.4434 1.91568C44.4434 1.91568 53.2183 3.4524 57.894 6.43652C62.0761 9.10561 64.2106 11.2402 66.8797 15.4222Z"/><path fill="#BDBDBD" d="M5.87198 89.32C4.77331 89.32 3.82398 89.0854 3.02398 88.616C2.23465 88.136 1.63198 87.4854 1.21598 86.664C0.79998 85.8427 0.59198 84.9147 0.59198 83.88C0.59198 82.8134 0.821313 81.8427 1.27998 80.968C1.73865 80.0827 2.36798 79.3894 3.16798 78.888C3.97865 78.376 4.87998 78.12 5.87198 78.12C6.81065 78.12 7.59465 78.2427 8.22398 78.488C8.85331 78.7227 9.33331 79.032 9.66398 79.416C9.85598 79.6614 9.97331 79.9654 10.016 80.328C10.0586 80.6907 10.08 81.1974 10.08 81.848H9.59998C9.39731 80.8667 9.02398 80.12 8.47998 79.608C7.93598 79.096 7.22665 78.84 6.35198 78.84C5.26398 78.84 4.40531 79.224 3.77598 79.992C3.14665 80.76 2.83198 82.056 2.83198 83.88C2.83198 85.2347 3.11998 86.36 3.69598 87.256C4.27198 88.152 5.15731 88.6 6.35198 88.6C7.09865 88.6 7.78131 88.4027 8.39998 88.008C9.02931 87.6134 9.53598 87.048 9.91998 86.312L10.48 86.744C9.96798 87.64 9.34931 88.296 8.62398 88.712C7.89865 89.1174 6.98131 89.32 5.87198 89.32Z"/><path fill="#BDBDBD" d="M19.8034 89.16C19.2274 89.16 18.694 88.984 18.2034 88.632C17.7127 88.28 17.2167 87.6827 16.7154 86.84L15.1154 84.168H14.4754V89H12.3794V80.52C12.3794 79.976 12.3047 79.576 12.1554 79.32C12.006 79.0534 11.7074 78.92 11.2594 78.92H11.0994V78.44H15.5154C16.6034 78.44 17.5954 78.6427 18.4914 79.048C19.3874 79.4427 19.8354 80.2054 19.8354 81.336C19.8354 82.1147 19.5954 82.712 19.1154 83.128C18.646 83.5334 18.022 83.8374 17.2434 84.04L18.9234 86.84C19.5527 87.896 20.214 88.4827 20.9074 88.6V89C20.822 89.0427 20.6674 89.08 20.4434 89.112C20.2194 89.144 20.006 89.16 19.8034 89.16ZM15.4354 83.528C16.0327 83.528 16.5394 83.352 16.9554 83C17.382 82.6374 17.5954 82.072 17.5954 81.304C17.5954 80.536 17.3874 79.976 16.9714 79.624C16.5554 79.2614 16.054 79.08 15.4674 79.08C15.19 79.08 14.8594 79.1174 14.4754 79.192V83.528H15.4354Z"/><path fill="#BDBDBD" d="M26.5907 89.32C25.5561 89.32 24.6334 89.0747 23.8227 88.584C23.0227 88.0934 22.4041 87.4214 21.9667 86.568C21.5294 85.7147 21.3107 84.7654 21.3107 83.72C21.3107 82.6747 21.5294 81.7254 21.9667 80.872C22.4041 80.0187 23.0227 79.3467 23.8227 78.856C24.6334 78.3654 25.5561 78.12 26.5907 78.12C27.6254 78.12 28.5427 78.3654 29.3427 78.856C30.1427 79.3467 30.7614 80.0187 31.1987 80.872C31.6361 81.7254 31.8547 82.6747 31.8547 83.72C31.8547 84.7654 31.6361 85.7147 31.1987 86.568C30.7614 87.4214 30.1427 88.0934 29.3427 88.584C28.5427 89.0747 27.6254 89.32 26.5907 89.32ZM26.5907 88.6C27.5614 88.6 28.3134 88.1787 28.8467 87.336C29.3801 86.4827 29.6467 85.2774 29.6467 83.72C29.6467 82.1627 29.3801 80.9627 28.8467 80.12C28.3134 79.2667 27.5614 78.84 26.5907 78.84C25.6201 78.84 24.8681 79.2667 24.3347 80.12C23.8121 80.9627 23.5507 82.1627 23.5507 83.72C23.5507 85.2774 23.8121 86.4827 24.3347 87.336C24.8681 88.1787 25.6201 88.6 26.5907 88.6Z"/><path fill="#BDBDBD" d="M35.1571 89C34.7731 89 34.4798 88.9414 34.2771 88.824C34.0744 88.696 33.9304 88.488 33.8451 88.2C33.7598 87.9014 33.7171 87.4747 33.7171 86.92V78.44H35.7971V86.92C35.7971 87.464 35.8718 87.8694 36.0211 88.136C36.1704 88.392 36.4691 88.52 36.9171 88.52H37.0771V89H35.1571Z"/><path fill="#BDBDBD" d="M41.6805 89.272C41.0831 89.272 40.5071 89.192 39.9525 89.032C39.3978 88.8827 38.9445 88.664 38.5925 88.376C38.2405 88.0774 38.0645 87.736 38.0645 87.352V85.48H38.5125C38.6725 86.568 39.0085 87.352 39.5205 87.832C40.0325 88.312 40.7472 88.552 41.6645 88.552C42.2831 88.552 42.7738 88.4187 43.1365 88.152C43.4991 87.8854 43.6805 87.5014 43.6805 87C43.6805 86.5734 43.5471 86.2107 43.2805 85.912C43.0138 85.6134 42.5978 85.288 42.0325 84.936L40.0645 83.752C39.3498 83.336 38.8378 82.904 38.5285 82.456C38.2298 82.008 38.0805 81.4854 38.0805 80.888C38.0805 80.0454 38.4005 79.3787 39.0405 78.888C39.6911 78.3974 40.5658 78.152 41.6645 78.152C42.2618 78.152 42.8378 78.232 43.3925 78.392C43.9471 78.5414 44.4005 78.7654 44.7525 79.064C45.1045 79.352 45.2805 79.688 45.2805 80.072V81.944H44.8325C44.6511 80.856 44.3151 80.072 43.8245 79.592C43.3338 79.112 42.6725 78.872 41.8405 78.872C41.2645 78.872 40.8058 79.0107 40.4645 79.288C40.1338 79.5654 39.9685 79.944 39.9685 80.424C39.9685 80.84 40.0965 81.1867 40.3525 81.464C40.6191 81.7307 41.0458 82.0347 41.6325 82.376L43.6005 83.544C44.3471 83.9814 44.8805 84.408 45.2005 84.824C45.5311 85.2294 45.6965 85.72 45.6965 86.296C45.6965 87.224 45.3445 87.9547 44.6405 88.488C43.9471 89.0107 42.9605 89.272 41.6805 89.272Z"/><path fill="#BDBDBD" d="M50.6492 89.272C50.0519 89.272 49.4759 89.192 48.9212 89.032C48.3666 88.8827 47.9132 88.664 47.5612 88.376C47.2092 88.0774 47.0332 87.736 47.0332 87.352V85.48H47.4812C47.6412 86.568 47.9772 87.352 48.4892 87.832C49.0012 88.312 49.7159 88.552 50.6332 88.552C51.2519 88.552 51.7426 88.4187 52.1052 88.152C52.4679 87.8854 52.6492 87.5014 52.6492 87C52.6492 86.5734 52.5159 86.2107 52.2492 85.912C51.9826 85.6134 51.5666 85.288 51.0012 84.936L49.0332 83.752C48.3186 83.336 47.8066 82.904 47.4972 82.456C47.1986 82.008 47.0492 81.4854 47.0492 80.888C47.0492 80.0454 47.3692 79.3787 48.0092 78.888C48.6599 78.3974 49.5346 78.152 50.6332 78.152C51.2306 78.152 51.8066 78.232 52.3612 78.392C52.9159 78.5414 53.3692 78.7654 53.7212 79.064C54.0732 79.352 54.2492 79.688 54.2492 80.072V81.944H53.8012C53.6199 80.856 53.2839 80.072 52.7932 79.592C52.3026 79.112 51.6412 78.872 50.8092 78.872C50.2332 78.872 49.7746 79.0107 49.4332 79.288C49.1026 79.5654 48.9372 79.944 48.9372 80.424C48.9372 80.84 49.0652 81.1867 49.3212 81.464C49.5879 81.7307 50.0146 82.0347 50.6012 82.376L52.5692 83.544C53.3159 83.9814 53.8492 84.408 54.1692 84.824C54.4999 85.2294 54.6652 85.72 54.6652 86.296C54.6652 87.224 54.3132 87.9547 53.6092 88.488C52.9159 89.0107 51.9292 89.272 50.6492 89.272Z"/><path fill="#BDBDBD" d="M65.298 89.064C64.626 89.064 64.018 88.9254 63.474 88.648C62.93 88.36 62.4873 87.8054 62.146 86.984L61.778 86.088H57.522L56.21 89H55.378L60.098 78.44H60.818L64.402 86.984C64.8073 87.976 65.362 88.5094 66.066 88.584V88.984C65.874 89.0374 65.618 89.064 65.298 89.064ZM61.474 85.368L59.714 81.192L57.858 85.368H61.474Z"/><path fill="#BDBDBD" d="M67.9774 81.08V89H67.1774V80.36C67.1774 79.912 67.0654 79.56 66.8414 79.304C66.628 79.048 66.26 78.92 65.7374 78.92H65.6574V78.44H66.7774C67.3747 78.44 67.86 78.52 68.2334 78.68C68.6174 78.8294 68.9374 79.0694 69.1934 79.4L74.6974 85.8V78.44H75.4974V89.048H74.7614L67.9774 81.08Z"/><path fill="#BDBDBD" d="M80.3995 79.16H79.2635C78.6661 79.16 78.2075 79.3094 77.8875 79.608C77.5781 79.9067 77.4235 80.3974 77.4235 81.08H76.9435V79.72C76.9435 78.8667 77.3968 78.44 78.3035 78.44H85.8235V79.16H82.4795V89H80.3995V79.16Z"/><path fill="#BDBDBD" d="M90.2586 89.272C89.6613 89.272 89.0853 89.192 88.5306 89.032C87.9759 88.8827 87.5226 88.664 87.1706 88.376C86.8186 88.0774 86.6426 87.736 86.6426 87.352V85.48H87.0906C87.2506 86.568 87.5866 87.352 88.0986 87.832C88.6106 88.312 89.3253 88.552 90.2426 88.552C90.8613 88.552 91.3519 88.4187 91.7146 88.152C92.0773 87.8854 92.2586 87.5014 92.2586 87C92.2586 86.5734 92.1253 86.2107 91.8586 85.912C91.5919 85.6134 91.1759 85.288 90.6106 84.936L88.6426 83.752C87.9279 83.336 87.4159 82.904 87.1066 82.456C86.8079 82.008 86.6586 81.4854 86.6586 80.888C86.6586 80.0454 86.9786 79.3787 87.6186 78.888C88.2693 78.3974 89.1439 78.152 90.2426 78.152C90.8399 78.152 91.4159 78.232 91.9706 78.392C92.5253 78.5414 92.9786 78.7654 93.3306 79.064C93.6826 79.352 93.8586 79.688 93.8586 80.072V81.944H93.4106C93.2293 80.856 92.8933 80.072 92.4026 79.592C91.9119 79.112 91.2506 78.872 90.4186 78.872C89.8426 78.872 89.3839 79.0107 89.0426 79.288C88.7119 79.5654 88.5466 79.944 88.5466 80.424C88.5466 80.84 88.6746 81.1867 88.9306 81.464C89.1973 81.7307 89.6239 82.0347 90.2106 82.376L92.1786 83.544C92.9253 83.9814 93.4586 84.408 93.7786 84.824C94.1093 85.2294 94.2746 85.72 94.2746 86.296C94.2746 87.224 93.9226 87.9547 93.2186 88.488C92.5253 89.0107 91.5386 89.272 90.2586 89.272Z"/></svg>