<svg width="82" height="89" viewBox="0 0 82 89" fill="none" xmlns="http://www.w3.org/2000/svg">
<path fill-rule="evenodd" clip-rule="evenodd" d="M64.9019 49.3084C63.2845 49.3084 61.7916 49.1206 60.4521 48.8172C57.9846 48.258 56.1225 47.1796 55.459 45.9704C54.4388 47.3963 51.2787 48.615 47.1814 49.0731C45.8819 49.2256 44.5519 49.3046 43.2168 49.3084C41.8275 49.3084 40.5088 49.2155 39.2522 49.0731C36.6554 48.7852 32 47.5001 30.6594 45.6608C30.1618 46.998 28.3122 48.1961 25.7037 48.809C24.3151 49.134 22.8008 49.3044 21.2663 49.3084C20.0737 49.3073 19 48.809 17.7662 48.0071L23.3647 58.4178C23.796 59.4949 25.6788 62.0001 29.6683 62.0001H56.8524C60.788 62.0001 62.5049 59.4949 63.156 58.4178L68.767 47.9617C67.604 48.8172 66.2217 49.3095 64.9019 49.3084ZM45.054 59.0515H40.5958V51.6286H45.054V59.0515ZM33.637 58.8596L30.0208 59.0846L27.5118 52.0372L31.1529 51.8102L33.637 58.8596ZM55.3677 51.8082L59.013 52.0352L56.504 59.0825L52.8836 58.8576L55.3677 51.8082Z" fill="#BDBDBD"/>
<path fill-rule="evenodd" clip-rule="evenodd" d="M43.2079 16.5077C26.0857 16.5077 11.9868 26.8786 11.9868 36.0719C11.9868 36.2365 11.8859 37.3593 11.8859 37.7772C11.8859 42.2135 16.1286 45.7971 21.3595 45.7971C22.9405 45.7971 24.4164 45.4383 25.7325 44.8516C28.4068 43.6612 30.3032 41.4368 30.7111 38.7902C31.325 41.88 34.6342 44.3957 39.0955 45.3496C40.3318 45.6156 41.6311 45.7928 43.0061 45.7928C44.381 45.7928 45.6803 45.6156 46.9166 45.3496C50.9616 44.4886 54.0648 42.3485 55.0782 39.6555C55.7342 41.9349 57.5675 43.8132 60.0021 44.8684C61.3224 45.4383 62.7941 45.7928 64.3877 45.7928C69.6943 45.7928 73.9874 42.205 73.9874 37.773L74 36.0677C73.9958 26.8786 60.3343 16.5077 43.2079 16.5077Z" fill="#BDBDBD"/>
<path d="M25.9045 20.6073C21.7449 8.9882 20.6106 -7.07845 34.5002 19.5001L25.9045 20.6073Z" fill="#BDBDBD"/>
<path d="M27.5119 23.0001C15.7564 4.66383 -3.90839 -19.0656 19.5303 28.4272L27.5119 23.0001Z" fill="#BDBDBD"/>
<path d="M61 14.5001C61 18.09 58.0899 21.0001 54.5 21.0001C50.9102 21.0001 48 18.09 48 14.5001C48 10.9103 50.9102 8.00012 54.5 8.00012C58.0899 8.00012 61 10.9103 61 14.5001Z" fill="#BDBDBD"/>
<path d="M5.87204 88.3201C4.77337 88.3201 3.82404 88.0854 3.02404 87.6161C2.23471 87.1361 1.63204 86.4854 1.21604 85.6641C0.800041 84.8427 0.592041 83.9147 0.592041 82.8801C0.592041 81.8134 0.821374 80.8427 1.28004 79.9681C1.73871 79.0827 2.36804 78.3894 3.16804 77.8881C3.97871 77.3761 4.88004 77.1201 5.87204 77.1201C6.81071 77.1201 7.59471 77.2427 8.22404 77.4881C8.85337 77.7227 9.33337 78.0321 9.66404 78.4161C9.85604 78.6614 9.97338 78.9654 10.016 79.3281C10.0587 79.6907 10.08 80.1974 10.08 80.8481H9.60004C9.39738 79.8667 9.02404 79.1201 8.48004 78.6081C7.93604 78.0961 7.22671 77.8401 6.35204 77.8401C5.26404 77.8401 4.40537 78.2241 3.77604 78.9921C3.14671 79.7601 2.83204 81.0561 2.83204 82.8801C2.83204 84.2347 3.12004 85.3601 3.69604 86.2561C4.27204 87.1521 5.15737 87.6001 6.35204 87.6001C7.09871 87.6001 7.78137 87.4027 8.40004 87.0081C9.02938 86.6134 9.53604 86.0481 9.92004 85.3121L10.48 85.7441C9.96804 86.6401 9.34937 87.2961 8.62404 87.7121C7.89871 88.1174 6.98137 88.3201 5.87204 88.3201Z" fill="#BDBDBD"/>
<path d="M16.6514 88.1601C13.7714 88.1601 12.3314 86.5707 12.3314 83.3921V79.5201C12.3314 79.0081 12.2621 78.6241 12.1234 78.3681C11.9954 78.1014 11.7394 77.9521 11.3554 77.9201H11.2114V77.4401H12.9714C13.3554 77.4401 13.6487 77.5041 13.8514 77.6321C14.0541 77.7601 14.1981 77.9734 14.2834 78.2721C14.3687 78.5601 14.4114 78.9761 14.4114 79.5201L14.4274 83.8721C14.4381 85.0027 14.6567 85.8827 15.0834 86.5121C15.5207 87.1307 16.1501 87.4401 16.9714 87.4401C18.0594 87.4401 18.8487 87.1201 19.3394 86.4801C19.8407 85.8294 20.0914 84.8001 20.0914 83.3921V77.4401H20.8914V83.3921C20.8914 84.9601 20.5607 86.1494 19.8994 86.9601C19.2381 87.7601 18.1554 88.1601 16.6514 88.1601Z" fill="#BDBDBD"/>
<path d="M23.4888 79.5201C23.4888 78.9761 23.4141 78.5761 23.2648 78.3201C23.1155 78.0534 22.8168 77.9201 22.3688 77.9201H22.2088V77.4401H26.6088C27.7075 77.4401 28.6995 77.6587 29.5848 78.0961C30.4808 78.5227 30.9288 79.3761 30.9288 80.6561C30.9288 81.4881 30.6941 82.1334 30.2248 82.5921C29.7661 83.0507 29.2488 83.3547 28.6728 83.5041C28.0968 83.6534 27.5688 83.7281 27.0888 83.7281H25.5688V88.0001H23.4888V79.5201ZM26.5288 83.0881C27.1581 83.0881 27.6755 82.8961 28.0808 82.5121C28.4861 82.1281 28.6888 81.4827 28.6888 80.5761C28.6888 79.6801 28.4861 79.0401 28.0808 78.6561C27.6861 78.2721 27.1955 78.0801 26.6088 78.0801C26.2995 78.0801 25.9528 78.1174 25.5688 78.1921V83.0881H26.5288Z" fill="#BDBDBD"/>
<path d="M37.0752 88.3201C35.9765 88.3201 35.0272 88.0854 34.2272 87.6161C33.4378 87.1361 32.8352 86.4854 32.4192 85.6641C32.0032 84.8427 31.7952 83.9147 31.7952 82.8801C31.7952 81.8134 32.0245 80.8427 32.4832 79.9681C32.9418 79.0827 33.5712 78.3894 34.3712 77.8881C35.1818 77.3761 36.0832 77.1201 37.0752 77.1201C38.0138 77.1201 38.7978 77.2427 39.4272 77.4881C40.0565 77.7227 40.5365 78.0321 40.8672 78.4161C41.0592 78.6614 41.1765 78.9654 41.2192 79.3281C41.2618 79.6907 41.2832 80.1974 41.2832 80.8481H40.8032C40.6005 79.8667 40.2272 79.1201 39.6832 78.6081C39.1392 78.0961 38.4298 77.8401 37.5552 77.8401C36.4672 77.8401 35.6085 78.2241 34.9792 78.9921C34.3498 79.7601 34.0352 81.0561 34.0352 82.8801C34.0352 84.2347 34.3232 85.3601 34.8992 86.2561C35.4752 87.1521 36.3605 87.6001 37.5552 87.6001C38.3018 87.6001 38.9845 87.4027 39.6032 87.0081C40.2325 86.6134 40.7392 86.0481 41.1232 85.3121L41.6832 85.7441C41.1712 86.6401 40.5525 87.2961 39.8272 87.7121C39.1018 88.1174 38.1845 88.3201 37.0752 88.3201Z" fill="#BDBDBD"/>
<path d="M52.1105 88.0641C51.4385 88.0641 50.8305 87.9254 50.2865 87.6481C49.7425 87.3601 49.2999 86.8054 48.9585 85.9841L48.5905 85.0881H44.3345L43.0225 88.0001H42.1905L46.9105 77.4401H47.6305L51.2145 85.9841C51.6199 86.9761 52.1745 87.5094 52.8785 87.5841V87.9841C52.6865 88.0374 52.4305 88.0641 52.1105 88.0641ZM48.2865 84.3681L46.5265 80.1921L44.6705 84.3681H48.2865Z" fill="#BDBDBD"/>
<path d="M62.5179 88.1601C61.8459 88.1601 61.2006 88.0267 60.5819 87.7601C59.9739 87.4827 59.3179 86.9761 58.6139 86.2401L56.0379 83.5521V88.0001H53.9579L53.9419 79.5201C53.9419 78.9761 53.8672 78.5761 53.7179 78.3201C53.5686 78.0534 53.2699 77.9201 52.8219 77.9201H52.6619V77.4401H54.5819C54.9552 77.4401 55.2432 77.5041 55.4459 77.6321C55.6592 77.7601 55.8086 77.9734 55.8939 78.2721C55.9899 78.5707 56.0379 78.9867 56.0379 79.5201V82.5601L58.8059 79.1201C59.2006 78.6081 59.6219 78.2027 60.0699 77.9041C60.5286 77.5947 61.0513 77.4401 61.6379 77.4401H62.7579V78.0001C62.0966 78.0001 61.5259 78.0854 61.0459 78.2561C60.5766 78.4161 60.1712 78.7094 59.8299 79.1361L57.4459 82.0801L61.1419 85.9201C61.5366 86.3574 61.9793 86.7414 62.4699 87.0721C62.9713 87.3921 63.3766 87.5734 63.6859 87.6161V88.0001C63.3659 88.1067 62.9766 88.1601 62.5179 88.1601Z" fill="#BDBDBD"/>
<path d="M65.0357 79.5201C65.0357 78.9761 64.961 78.5761 64.8117 78.3201C64.6623 78.0534 64.3637 77.9201 63.9157 77.9201H63.7557V77.4401H70.8117C71.7183 77.4401 72.1717 77.8667 72.1717 78.7201V80.0801H71.6917C71.6917 79.4187 71.521 78.9334 71.1797 78.6241C70.849 78.3147 70.353 78.1601 69.6917 78.1601H67.1157V82.1601H71.2757V82.8801H67.1157V87.2801H69.8517C70.4597 87.2801 70.9663 87.1467 71.3717 86.8801C71.777 86.6027 72.113 86.1281 72.3797 85.4561L72.8117 85.6161L72.3477 86.8801C72.209 87.2641 72.0437 87.5467 71.8517 87.7281C71.6597 87.9094 71.361 88.0001 70.9557 88.0001H65.0357V79.5201Z" fill="#BDBDBD"/>
<path d="M77.4774 88.2721C76.8801 88.2721 76.3041 88.1921 75.7494 88.0321C75.1947 87.8827 74.7414 87.6641 74.3894 87.3761C74.0374 87.0774 73.8614 86.7361 73.8614 86.3521V84.4801H74.3094C74.4694 85.5681 74.8054 86.3521 75.3174 86.8321C75.8294 87.3121 76.5441 87.5521 77.4614 87.5521C78.0801 87.5521 78.5708 87.4187 78.9334 87.1521C79.2961 86.8854 79.4774 86.5014 79.4774 86.0001C79.4774 85.5734 79.3441 85.2107 79.0774 84.9121C78.8107 84.6134 78.3947 84.2881 77.8294 83.9361L75.8614 82.7521C75.1468 82.3361 74.6348 81.9041 74.3254 81.4561C74.0267 81.0081 73.8774 80.4854 73.8774 79.8881C73.8774 79.0454 74.1974 78.3787 74.8374 77.8881C75.4881 77.3974 76.3628 77.1521 77.4614 77.1521C78.0588 77.1521 78.6348 77.2321 79.1894 77.3921C79.7441 77.5414 80.1974 77.7654 80.5494 78.0641C80.9014 78.3521 81.0774 78.6881 81.0774 79.0721V80.9441H80.6294C80.4481 79.8561 80.1121 79.0721 79.6214 78.5921C79.1307 78.1121 78.4694 77.8721 77.6374 77.8721C77.0614 77.8721 76.6027 78.0107 76.2614 78.2881C75.9307 78.5654 75.7654 78.9441 75.7654 79.4241C75.7654 79.8401 75.8934 80.1867 76.1494 80.4641C76.4161 80.7307 76.8427 81.0347 77.4294 81.3761L79.3974 82.5441C80.1441 82.9814 80.6774 83.4081 80.9974 83.8241C81.3281 84.2294 81.4934 84.7201 81.4934 85.2961C81.4934 86.2241 81.1414 86.9547 80.4374 87.4881C79.7441 88.0107 78.7574 88.2721 77.4774 88.2721Z" fill="#BDBDBD"/>
</svg>
