<svg xmlns="http://www.w3.org/2000/svg" width="33" height="33" fill="none" viewBox="0 0 33 33"><path fill="#fff" d="M31.1667 0H1.83333C1.3471 0 0.880787 0.193154 0.536971 0.536971C0.193154 0.880787 0 1.3471 0 1.83333V31.1667C0 31.6529 0.193154 32.1192 0.536971 32.463C0.880787 32.8068 1.3471 33 1.83333 33H17.6275V20.24H13.3412V15.2442H17.6275V11.5775C17.6275 7.315 20.2308 4.99217 24.0442 4.99217C25.3257 4.9885 26.609 5.0545 27.885 5.18833V9.625H25.2542C23.1862 9.625 22.7828 10.6113 22.7828 12.0542V15.235H27.7273L27.0857 20.2308H22.781V33H31.1667C31.6529 33 32.1192 32.8068 32.463 32.463C32.8068 32.1192 33 31.6529 33 31.1667V1.83333C33 1.3471 32.8068 0.880787 32.463 0.536971C32.1192 0.193154 31.6529 0 31.1667 0Z"/></svg>