<svg xmlns="http://www.w3.org/2000/svg" width="49" height="128" fill="none" viewBox="0 0 49 128"><path fill="#fff" fill-rule="evenodd" d="M25.0355 0L25.0355 126.293L47.364 103.964L48.0711 104.672L24.8891 127.854C24.6938 128.049 24.3772 128.049 24.182 127.854L0 103.672L0.707107 102.964L24.0355 126.293L24.0355 0H25.0355Z" clip-rule="evenodd" opacity=".5"/><path fill="#fff" d="M18.238 48.178C18.238 48.7007 18.168 49.2047 18.028 49.69C17.8973 50.1753 17.706 50.572 17.454 50.88C17.1927 51.188 16.894 51.342 16.558 51.342L14.92 51.342L14.92 50.95C15.872 50.81 16.558 50.516 16.978 50.068C17.398 49.62 17.608 48.9947 17.608 48.192C17.608 47.6507 17.4913 47.2213 17.258 46.904C17.0247 46.5867 16.6887 46.428 16.25 46.428C15.8767 46.428 15.5593 46.5447 15.298 46.778C15.0367 47.0113 14.752 47.3753 14.444 47.87L13.408 49.592C13.044 50.2173 12.666 50.6653 12.274 50.936C11.882 51.1973 11.4247 51.328 10.902 51.328C10.1647 51.328 9.58133 51.048 9.152 50.488C8.72267 49.9187 8.508 49.1533 8.508 48.192C8.508 47.6693 8.578 47.1653 8.718 46.68C8.84867 46.1947 9.04467 45.798 9.306 45.49C9.558 45.182 9.852 45.028 10.188 45.028L11.826 45.028L11.826 45.42C10.874 45.5787 10.188 45.8727 9.768 46.302C9.348 46.7313 9.138 47.31 9.138 48.038C9.138 48.542 9.25933 48.9433 9.502 49.242C9.74467 49.5313 10.076 49.676 10.496 49.676C10.86 49.676 11.1633 49.564 11.406 49.34C11.6393 49.1067 11.9053 48.7333 12.204 48.22L13.226 46.498C13.6087 45.8447 13.982 45.378 14.346 45.098C14.7007 44.8087 15.13 44.664 15.634 44.664C16.446 44.664 17.0853 44.972 17.552 45.588C18.0093 46.1947 18.238 47.058 18.238 48.178ZM18.28 39.0143C18.28 39.9757 18.0747 40.8063 17.664 41.5063C17.244 42.197 16.6747 42.7243 15.956 43.0883C15.2373 43.4523 14.4253 43.6343 13.52 43.6343C12.5867 43.6343 11.7373 43.4337 10.972 43.0323C10.1973 42.631 9.59067 42.0803 9.152 41.3803C8.704 40.671 8.48 39.8823 8.48 39.0143C8.48 38.193 8.58733 37.507 8.802 36.9563C9.00733 36.4057 9.278 35.9857 9.614 35.6963C9.82867 35.5283 10.0947 35.4257 10.412 35.3883C10.7293 35.351 11.1727 35.3323 11.742 35.3323L11.742 35.7523C10.8833 35.9297 10.23 36.2563 9.782 36.7323C9.334 37.2083 9.11 37.829 9.11 38.5943C9.11 39.5463 9.446 40.2977 10.118 40.8483C10.79 41.399 11.924 41.6743 13.52 41.6743C14.7053 41.6743 15.69 41.4223 16.474 40.9183C17.258 40.4143 17.65 39.6397 17.65 38.5943C17.65 37.941 17.4773 37.3437 17.132 36.8023C16.7867 36.2517 16.292 35.8083 15.648 35.4723L16.026 34.9823C16.81 35.4303 17.384 35.9717 17.748 36.6063C18.1027 37.241 18.28 38.0437 18.28 39.0143ZM18.14 26.8244C18.14 27.3284 17.986 27.7951 17.678 28.2244C17.37 28.6537 16.8473 29.0877 16.11 29.5264L13.772 30.9264L13.772 31.4864L18 31.4864L18 33.3204L10.58 33.3204C10.104 33.3204 9.754 33.3857 9.53 33.5164C9.29667 33.6471 9.18 33.9084 9.18 34.3004L9.18 34.4404L8.76 34.4404L8.76 30.5764C8.76 29.6244 8.93733 28.7564 9.292 27.9724C9.63733 27.1884 10.3047 26.7964 11.294 26.7964C11.9753 26.7964 12.498 27.0064 12.862 27.4264C13.2167 27.8371 13.4827 28.3831 13.66 29.0644L16.11 27.5944C17.034 27.0437 17.5473 26.4651 17.65 25.8584L18 25.8584C18.0373 25.9331 18.07 26.0684 18.098 26.2644C18.126 26.4604 18.14 26.6471 18.14 26.8244ZM13.212 30.6464C13.212 30.1237 13.058 29.6804 12.75 29.3164C12.4327 28.9431 11.938 28.7564 11.266 28.7564C10.594 28.7564 10.104 28.9384 9.796 29.3024C9.47867 29.6664 9.32 30.1051 9.32 30.6184C9.32 30.8611 9.35267 31.1504 9.418 31.4864L13.212 31.4864L13.212 30.6464ZM18.28 20.8854C18.28 21.7908 18.0653 22.5981 17.636 23.3074C17.2067 24.0074 16.6187 24.5488 15.872 24.9314C15.1253 25.3141 14.2947 25.5054 13.38 25.5054C12.4653 25.5054 11.6347 25.3141 10.888 24.9314C10.1413 24.5488 9.55333 24.0074 9.124 23.3074C8.69467 22.5981 8.48 21.7908 8.48 20.8854C8.48 19.9801 8.69467 19.1774 9.124 18.4774C9.55333 17.7774 10.1413 17.2361 10.888 16.8534C11.6347 16.4708 12.4653 16.2794 13.38 16.2794C14.2947 16.2794 15.1253 16.4708 15.872 16.8534C16.6187 17.2361 17.2067 17.7774 17.636 18.4774C18.0653 19.1774 18.28 19.9801 18.28 20.8854ZM17.65 20.8854C17.65 20.0361 17.2813 19.3781 16.544 18.9114C15.7973 18.4448 14.7427 18.2114 13.38 18.2114C12.0173 18.2114 10.9673 18.4448 10.23 18.9114C9.48333 19.3781 9.11 20.0361 9.11 20.8854C9.11 21.7348 9.48333 22.3928 10.23 22.8594C10.9673 23.3168 12.0173 23.5454 13.38 23.5454C14.7427 23.5454 15.7973 23.3168 16.544 22.8594C17.2813 22.3928 17.65 21.7348 17.65 20.8854ZM10.58 14.5079C10.104 14.5079 9.754 14.5732 9.53 14.7039C9.29666 14.8346 9.18 15.0959 9.18 15.4879L9.18 15.6279L8.76 15.6279L8.76 13.9479C8.76 13.6119 8.816 13.3552 8.928 13.1779C9.04 13.0006 9.22666 12.8746 9.488 12.7999C9.74 12.7252 10.104 12.6879 10.58 12.6879L17.37 12.6879L17.37 7.85789L18 7.85789L18 14.5079L10.58 14.5079ZM10.58 6.75594C10.104 6.75594 9.754 6.82127 9.53 6.95194C9.29666 7.0826 9.18 7.34394 9.18 7.73594L9.18 7.87594L8.76 7.87594L8.76 6.19594C8.76 5.85994 8.816 5.60327 8.928 5.42594C9.04 5.2486 9.22666 5.1226 9.488 5.04794C9.74 4.97327 10.104 4.93594 10.58 4.93594L17.37 4.93594L17.37 0.105936L18 0.105936L18 6.75594L10.58 6.75594Z" opacity=".5"/></svg>