<svg width="49" height="212" viewBox="0 0 49 212" fill="none" xmlns="http://www.w3.org/2000/svg">
<path fill-rule="evenodd" clip-rule="evenodd" d="M23.0356 212L23.0356 1.70711L0.707129 24.0355L2.16528e-05 23.3284L23.182 0.146456C23.3773 -0.0488107 23.6938 -0.0488107 23.8891 0.146456L48.0711 24.3284L47.364 25.0355L24.0356 1.70711L24.0356 212L23.0356 212Z" fill="#FFAF4F"/>
<path d="M8.39006 208.752L8.39006 209.746C8.39006 210.269 8.52073 210.67 8.78206 210.95C9.04339 211.221 9.47273 211.356 10.0701 211.356L10.0701 211.776L8.88006 211.776C8.13339 211.776 7.76006 211.379 7.76006 210.586L7.76006 204.006L8.39006 204.006L8.39006 206.932L17.0001 206.932L17.0001 208.752L8.39006 208.752ZM17.2801 199.37C17.2801 200.275 17.0654 201.082 16.6361 201.792C16.2067 202.492 15.6187 203.033 14.8721 203.416C14.1254 203.798 13.2947 203.99 12.3801 203.99C11.4654 203.99 10.6347 203.798 9.88806 203.416C9.14139 203.033 8.55339 202.492 8.12406 201.792C7.69473 201.082 7.48006 200.275 7.48006 199.37C7.48006 198.464 7.69473 197.662 8.12406 196.962C8.55339 196.262 9.14139 195.72 9.88806 195.338C10.6347 194.955 11.4654 194.764 12.3801 194.764C13.2947 194.764 14.1254 194.955 14.8721 195.338C15.6187 195.72 16.2067 196.262 16.6361 196.962C17.0654 197.662 17.2801 198.464 17.2801 199.37ZM16.6501 199.37C16.6501 198.52 16.2814 197.862 15.5441 197.396C14.7974 196.929 13.7427 196.696 12.3801 196.696C11.0174 196.696 9.96739 196.929 9.23006 197.396C8.48339 197.862 8.11006 198.52 8.11006 199.37C8.11006 200.219 8.48339 200.877 9.23006 201.344C9.96739 201.801 11.0174 202.03 12.3801 202.03C13.7427 202.03 14.7974 201.801 15.5441 201.344C16.2814 200.877 16.6501 200.219 16.6501 199.37ZM8.39006 187.492L8.39006 188.486C8.39006 189.009 8.52073 189.41 8.78206 189.69C9.04339 189.961 9.47273 190.096 10.0701 190.096L10.0701 190.516L8.88006 190.516C8.13339 190.516 7.76006 190.12 7.76006 189.326L7.76006 182.746L8.39006 182.746L8.39006 185.672L17.0001 185.672L17.0001 187.492L8.39006 187.492ZM9.58006 181.357C9.10406 181.357 8.75406 181.423 8.53006 181.554C8.29673 181.684 8.18006 181.946 8.18006 182.338L8.18006 182.478L7.76006 182.478L7.76006 180.797C7.76006 180.461 7.81606 180.205 7.92806 180.027C8.04006 179.85 8.22673 179.724 8.48806 179.649C8.74006 179.575 9.10406 179.537 9.58006 179.537L11.8901 179.537L11.8901 175.757L7.76006 175.757L7.76006 173.938L15.1801 173.938C15.6561 173.938 16.0107 173.872 16.2441 173.741C16.4681 173.611 16.5801 173.349 16.5801 172.957L16.5801 172.817L17.0001 172.817L17.0001 174.497C17.0001 174.833 16.9487 175.09 16.8461 175.267C16.7341 175.445 16.5521 175.571 16.3001 175.645C16.0387 175.72 15.6654 175.757 15.1801 175.757L12.5201 175.757L12.5201 179.537L17.0001 179.538L17.0001 181.358L9.58006 181.357ZM9.58006 171.281C9.10406 171.281 8.75406 171.347 8.53006 171.477C8.29673 171.608 8.18006 171.869 8.18006 172.261L8.18006 172.401L7.76006 172.401L7.76006 166.227C7.76006 165.434 8.13339 165.037 8.88006 165.037L10.0701 165.037L10.0701 165.457C9.49139 165.457 9.06673 165.607 8.79606 165.905C8.52539 166.195 8.39006 166.629 8.39006 167.207L8.39006 169.461L11.8901 169.461L11.8901 165.821L12.5201 165.821L12.5201 169.461L16.3701 169.461L16.3701 167.067C16.3701 166.535 16.2534 166.092 16.0201 165.737C15.7774 165.383 15.3621 165.089 14.7741 164.855L14.9141 164.477L16.0201 164.883C16.3561 165.005 16.6034 165.149 16.7621 165.317C16.9207 165.485 17.0001 165.747 17.0001 166.101L17.0001 171.281L9.58006 171.281ZM8.39006 157.469L8.39006 158.463C8.39006 158.985 8.52073 159.387 8.78206 159.667C9.04339 159.937 9.47273 160.073 10.0701 160.073L10.0701 160.493L8.88006 160.493C8.13339 160.493 7.76006 160.096 7.76006 159.303L7.76006 152.723L8.39006 152.723L8.39006 155.649L17.0001 155.649L17.0001 157.469L8.39006 157.469ZM17.2801 148.087C17.2801 148.992 17.0654 149.799 16.6361 150.509C16.2067 151.209 15.6187 151.75 14.8721 152.133C14.1254 152.515 13.2947 152.707 12.3801 152.707C11.4654 152.707 10.6347 152.515 9.88806 152.133C9.1414 151.75 8.5534 151.209 8.12406 150.509C7.69473 149.799 7.48006 148.992 7.48006 148.087C7.48006 147.181 7.69473 146.379 8.12406 145.679C8.5534 144.979 9.1414 144.437 9.88806 144.055C10.6347 143.672 11.4654 143.481 12.3801 143.481C13.2947 143.481 14.1254 143.672 14.8721 144.055C15.6187 144.437 16.2067 144.979 16.6361 145.679C17.0654 146.379 17.2801 147.181 17.2801 148.087ZM16.6501 148.087C16.6501 147.237 16.2814 146.579 15.5441 146.113C14.7974 145.646 13.7427 145.413 12.3801 145.413C11.0174 145.413 9.9674 145.646 9.23006 146.113C8.48339 146.579 8.11006 147.237 8.11006 148.087C8.11006 148.936 8.48339 149.594 9.23006 150.061C9.96739 150.518 11.0174 150.747 12.3801 150.747C13.7427 150.747 14.7974 150.518 15.5441 150.061C16.2814 149.594 16.6501 148.936 16.6501 148.087ZM9.58006 141.709C9.10406 141.709 8.75406 141.774 8.53006 141.905C8.29673 142.036 8.18006 142.297 8.18006 142.689L8.18006 142.829L7.76006 142.829L7.76006 138.979C7.76006 138.018 7.95139 137.15 8.33406 136.375C8.70739 135.591 9.45406 135.199 10.5741 135.199C11.3021 135.199 11.8667 135.404 12.2681 135.815C12.6694 136.216 12.9354 136.669 13.0661 137.173C13.1967 137.677 13.2621 138.139 13.2621 138.559L13.2621 139.889L17.0001 139.889L17.0001 141.709L9.58006 141.709ZM12.7021 139.049C12.7021 138.498 12.5341 138.046 12.1981 137.691C11.8621 137.336 11.2974 137.159 10.5041 137.159C9.72006 137.159 9.16006 137.336 8.82406 137.691C8.48806 138.036 8.32006 138.466 8.32006 138.979C8.32006 139.25 8.35273 139.553 8.41806 139.889L12.7021 139.889L12.7021 139.049Z" fill="#FFAF4F"/>
</svg>
