<svg width="19" height="20" viewBox="0 0 19 20" fill="none" xmlns="http://www.w3.org/2000/svg">
<path opacity="0.5" d="M8.1253 17.2026C9.92808 17.2022 11.6789 16.5988 13.099 15.4883L17.5639 19.9529L19 18.5168L14.5351 14.0522C15.6463 12.632 16.2502 10.8809 16.2506 9.07775C16.2506 4.5979 12.6054 0.952881 8.1253 0.952881C3.64521 0.952881 0 4.5979 0 9.07775C0 13.5576 3.64521 17.2026 8.1253 17.2026ZM8.1253 2.9841C11.4861 2.9841 14.2193 5.7171 14.2193 9.07775C14.2193 12.4384 11.4861 15.1714 8.1253 15.1714C4.76447 15.1714 2.03133 12.4384 2.03133 9.07775C2.03133 5.7171 4.76447 2.9841 8.1253 2.9841Z" fill="white"/>
</svg>
